<?xml version="1.0" encoding="UTF-8" standalone="no"?>
<svg
   xmlns:dc="http://purl.org/dc/elements/1.1/"
   xmlns:cc="http://creativecommons.org/ns#"
   xmlns:rdf="http://www.w3.org/1999/02/22-rdf-syntax-ns#"
   xmlns:svg="http://www.w3.org/2000/svg"
   xmlns="http://www.w3.org/2000/svg"
   xmlns:sodipodi="http://sodipodi.sourceforge.net/DTD/sodipodi-0.dtd"
   xmlns:inkscape="http://www.inkscape.org/namespaces/inkscape"
   width="744.09448819"
   height="1052.3622047"
   id="svg2"
   sodipodi:version="0.32"
   inkscape:version="1.0 (4035a4f, 2020-05-01)"
   sodipodi:docname="Pith_Logo_B001_black.svg"
   inkscape:output_extension="org.inkscape.output.svg.inkscape"
   version="1.1">
  <defs
     id="defs4">
    <linearGradient
       id="linearGradient4809">
      <stop
         style="stop-color:#144c22;stop-opacity:1;"
         offset="0"
         id="stop4811" />
      <stop
         style="stop-color:#144c22;stop-opacity:0;"
         offset="1"
         id="stop4813" />
    </linearGradient>
    <inkscape:perspective
       sodipodi:type="inkscape:persp3d"
       inkscape:vp_x="0 : 526.18109 : 1"
       inkscape:vp_y="0 : 1000 : 0"
       inkscape:vp_z="744.09448 : 526.18109 : 1"
       inkscape:persp3d-origin="372.04724 : 350.78739 : 1"
       id="perspective10" />
    <filter
       inkscape:collect="always"
       id="filter5687"
       x="-0.029780052"
       width="1.0595601"
       y="-0.14058214"
       height="1.2811643">
      <feGaussianBlur
         inkscape:collect="always"
         stdDeviation="7.864093"
         id="feGaussianBlur5689" />
    </filter>
  </defs>
  <sodipodi:namedview
     id="base"
     pagecolor="#ffffff"
     bordercolor="#666666"
     borderopacity="1.0"
     gridtolerance="10000"
     guidetolerance="10"
     objecttolerance="10"
     inkscape:pageopacity="0.0"
     inkscape:pageshadow="2"
     inkscape:zoom="0.90509668"
     inkscape:cx="183.61626"
     inkscape:cy="821.17205"
     inkscape:document-units="px"
     inkscape:current-layer="layer1"
     showgrid="false"
     inkscape:window-width="1276"
     inkscape:window-height="750"
     inkscape:window-x="0"
     inkscape:window-y="25"
     inkscape:document-rotation="0"
     inkscape:window-maximized="0" />
  <metadata
     id="metadata7">
    <rdf:RDF>
      <cc:Work
         rdf:about="">
        <dc:format>image/svg+xml</dc:format>
        <dc:type
           rdf:resource="http://purl.org/dc/dcmitype/StillImage" />
        <dc:title />
      </cc:Work>
    </rdf:RDF>
  </metadata>
  <g
     inkscape:label="Layer 1"
     inkscape:groupmode="layer"
     id="layer1"
     style="display:inline">
    <path
       d="m 132.32983,526.13388 c -55.39999,0 -99.999991,44.6 -99.999991,100 v 299.42383 c 0,15.17816 3.355045,29.54061 9.355469,42.40234 -0.523832,-1.12857 -1.034582,-2.26369 -1.519532,-3.41406 -1.214516,-2.881 -2.273279,-5.83076 -3.21875,-8.84375 0.3087,-0.0654 0.621798,-0.0933 0.9375,-0.1875 1.717752,-0.51248 3.695822,-1.33853 5.3125,-2 3.662807,-1.49866 7.30836,-2.99546 10.96875,-4.5 2.607977,-1.27645 5.239825,-2.49755 7.8125,-3.84375 3.069796,-1.60636 6.018936,-3.43455 9.09375,-5.03125 3.770406,-1.95793 7.641461,-3.71726 11.4375,-5.625 4.557906,-2.29058 9.03692,-4.73919 13.625,-6.96875 38.202564,-18.56443 -5.559917,3.77538 36.968744,-18.28125 21.92936,-11.8206 25.19776,-13.27867 47.21875,-26.4375 8.66133,-5.17561 17.14286,-10.6299 25.78125,-15.84375 5.30311,-3.20079 10.6597,-6.30444 16,-9.4375 4.26799,-5.42474 8.41333,-10.93658 12.5,-16.5 8.65143,-11.25622 17.07813,-22.6772 25.03125,-34.4375 1.71393,-2.75475 3.48609,-5.4685 5.15625,-8.25 5.73906,-9.55794 11.09541,-19.34889 16.5625,-29.0625 10.20236,-18.12698 3.38645,-5.70948 13.5,-24.46875 12.43064,-23.44988 23.14745,-47.7455 33.8125,-72.03125 8.99299,-20.98349 17.59478,-42.12787 26.40625,-63.1875 7.80161,-17.87923 13.89775,-36.41233 20.40625,-54.78125 3.27948,-9.59073 6.72122,-19.13321 10.125,-28.6875 h 20.0625 c -2.14343,5.83353 -4.28135,11.66614 -6.34375,17.53125 -6.60174,18.53447 -12.9792,37.17778 -20.9375,55.1875 -8.9278,21.16646 -17.87525,42.3328 -26.875,63.46875 -10.99534,24.39727 -22.1127,48.75192 -34.46875,72.5 -10.70065,20.58716 -21.41277,41.20661 -33.21875,61.1875 -7.30634,11.66361 -15.25005,22.91287 -23.53125,33.90625 -1.58425,2.24972 -3.17866,4.4841 -4.78125,6.71875 2.25035,-1.4536 4.51637,-2.91302 6.78125,-4.34375 9.91034,-6.26035 19.92501,-12.3966 29.875,-18.59375 20.34347,-13.72768 41.50183,-26.15774 62.03125,-39.59375 10.51863,-6.88421 20.84612,-14.06861 31.25,-21.125 10.40692,-7.05843 20.92725,-13.94875 31.1875,-21.21875 24.35443,-17.25656 34.32542,-25.54606 57.5625,-43.84375 29.81085,-24.5372 21.31657,-16.92452 49,-42.15625 3.71666,-3.3875 5.68412,-5.23693 8.55469,-7.86719 v -11.76367 c 0,-55.4 -44.6,-100 -100,-100 z M 531.75171,682.9581 c -1.91941,1.46943 -3.79391,3.00058 -5.74219,4.43164 -7.72435,5.67375 -15.71134,10.9718 -23.5625,16.46875 -8.70552,6.09516 -17.39064,12.21392 -26.09375,18.3125 -19.29875,12.8897 -38.73207,25.58035 -57.96875,38.5625 -10.45727,7.05723 -20.77347,14.3313 -31.21875,21.40625 -10.37873,7.02987 -20.89736,13.83803 -31.25,20.90625 -8.81826,6.02063 -17.57251,12.14627 -26.3125,18.28125 9.71665,-1.69649 19.45301,-3.37589 29.1875,-4.96875 19.71594,-3.17654 39.48461,-5.95792 59.34375,-8.0625 20.12396,-2.32243 40.33484,-3.5125 60.5625,-4.46875 9.16165,-0.25362 18.33193,-0.80597 27.5,-0.8125 8.51641,-0.006 17.04159,0.39279 25.55469,0.75 z m -35.89844,134.74414 c -12.41071,-0.0235 -24.81508,0.514 -37.21875,0.84375 -20.04987,0.78661 -40.09265,1.95207 -60.03125,4.28125 -20.04659,2.34375 -40.03235,5.11807 -59.90625,8.65625 -10.73363,1.87586 -21.45538,3.85534 -32.15625,5.90625 -4.15181,2.84181 -8.30462,5.65904 -12.5,8.4375 -9.89698,7.06984 -19.75721,14.19576 -29.6875,21.21875 -9.41902,6.66139 -18.9659,13.12452 -28.34375,19.84375 -9.25703,6.63266 -18.33471,13.54548 -27.5625,20.21875 -5.80137,4.19539 -11.66475,8.29981 -17.5,12.4375 1.58056,-0.17291 3.16827,-0.36817 4.75,-0.53125 17.18349,-1.08836 34.39575,-2.10165 51.625,-1.65625 6.78819,0.17547 26.11606,1.40934 32.65625,1.8125 41.25359,3.12416 82.1685,9.41599 123,15.90625 7.85307,1.20538 15.72328,2.3327 23.5625,3.625 72.47922,11.94822 -22.8608,-3.18652 50.96875,8.78125 16.59021,2.6893 33.22571,5.06824 49.875,7.34375 -0.0526,0.17309 -0.0715,0.35857 -0.125,0.53125 -0.97104,3.13511 -2.08203,6.19453 -3.34375,9.1875 -1.02353,2.42796 -2.20127,4.76916 -3.40625,7.09375 -14.38077,-2.93327 -28.78058,-5.76976 -43.25,-8.21875 -20.45883,-3.46274 -30.52192,-4.66159 -50.96875,-7.5625 -7.8545,-1.1144 -15.7105,-2.24304 -23.5625,-3.375 -8.51412,-1.11668 -36.29385,-4.80895 -45.15625,-5.84375 -19.97812,-2.33274 -39.9901,-4.198 -60.0625,-5.46875 -5.87421,-0.3719 -11.7489,-0.65961 -17.625,-1 -5.57215,-0.17819 -11.14431,-0.48379 -16.71875,-0.5625 -22.44184,-0.31686 -44.94451,0.74928 -67.15625,4.0625 -14.87435,2.26485 -29.61343,5.23173 -44.375,8.125 -1.56845,0.27659 -3.14505,0.51996 -4.71875,0.75 -3.17349,2.4993 -6.44929,5.09843 -10.78125,8.5 -6.51521,5.23605 -13.14363,10.3653 -19.5625,15.71871 -5.6566,4.718 -11.05268,9.7197 -16.656244,14.5 -4.392767,3.7481 -8.924976,7.3398 -13.3125,11.0938 -2.810897,2.405 -5.548851,4.8843 -8.3125,7.3438 -0.638267,-0.4102 -1.309358,-0.7638 -1.9375,-1.1876 -2.654199,-1.7897 -5.241706,-3.7077 -7.705078,-5.7382 17.272705,14.243 39.444142,22.7812 63.681632,22.7812 h 299.42188 c 55.4,0 100,-44.6 100,-99.99999 V 819.07724 c -5.14295,-0.29351 -10.28335,-0.6296 -15.42969,-0.875 -7.96294,-0.26887 -12.51268,-0.48494 -20.46875,-0.5 z"
       style="fill:#000000;fill-opacity:1;fill-rule:evenodd;stroke:none;stroke-width:2;stroke-linecap:butt;stroke-linejoin:round;stroke-miterlimit:21.6;stroke-dasharray:none;stroke-opacity:1"
       id="rect2389" />
  </g>
  <g
     inkscape:groupmode="layer"
     id="layer6"
     inkscape:label="Glass 1"
     style="display:inline" />
  <g
     inkscape:groupmode="layer"
     id="layer2"
     inkscape:label="Vein 1"
     style="display:none">
    <path
       style="opacity:1;fill:#ffffff;fill-opacity:1;stroke:#009b00;stroke-width:2;stroke-linecap:butt;stroke-linejoin:round;stroke-miterlimit:21.60000038;stroke-dasharray:none;stroke-opacity:1"
       d="M 499.71875,709.46875 L 499.71875,664.40625 C 496.84374,667.04049 494.87644,668.89053 491.15625,672.28125 C 463.47282,697.51298 471.9671,689.9003 442.15625,714.4375 C 418.91917,732.73519 408.94818,741.02469 384.59375,758.28125 C 374.3335,765.55125 363.81317,772.44157 353.40625,779.5 C 343.00237,786.55639 332.67488,793.74079 322.15625,800.625 C 301.62683,814.06101 280.46847,826.49107 260.125,840.21875 C 250.17501,846.4159 240.16034,852.55215 230.25,858.8125 C 220.73212,864.82495 211.39225,871.11787 201.8125,877.03125 C 192.65657,882.68301 183.27442,887.93998 174.0625,893.5 C 165.42411,898.71385 156.94258,904.16814 148.28125,909.34375 C 126.26026,922.50258 122.99186,923.96065 101.0625,935.78125 C 58.533833,957.83788 102.29632,935.49807 64.09375,954.0625 C 59.50567,956.29206 55.026656,958.74067 50.46875,961.03125 C 46.672711,962.93899 42.801656,964.69832 39.03125,966.65625 C 35.956436,968.25295 33.007296,970.08114 29.9375,971.6875 C 27.364825,973.0337 24.732977,974.2548 22.125,975.53125 C 18.46461,977.03579 14.819057,978.53259 11.15625,980.03125 C 9.539572,980.69272 7.561502,981.51877 5.84375,982.03125 C 5.5280474,982.12544 5.2149497,982.15331 4.90625,982.21875 C 5.8517206,985.23174 6.9104837,988.1815 8.125,991.0625 C 9.3867188,994.05547 10.776611,996.97817 12.3125,999.8125 C 13.848389,1002.6468 15.518945,1005.4033 17.3125,1008.0625 C 19.106055,1010.7217 21.027783,1013.2825 23.0625,1015.75 C 25.097217,1018.2175 27.240625,1020.5844 29.5,1022.8438 C 31.759375,1025.1031 34.126221,1027.2465 36.59375,1029.2812 C 39.061279,1031.316 41.65332,1033.2377 44.3125,1035.0312 C 44.940642,1035.4549 45.611733,1035.8091 46.25,1036.2188 C 49.013649,1033.7594 51.751603,1031.28 54.5625,1028.875 C 58.950024,1025.121 63.482233,1021.5292 67.875,1017.7812 C 73.478569,1013.0005 78.874647,1007.9992 84.53125,1003.2812 C 90.950113,997.92751 97.578531,992.79855 104.09375,987.5625 C 125.07456,971.08781 128.80298,967.88905 150.78125,951.875 C 159.26215,945.69555 167.9033,939.7741 176.40625,933.625 C 185.63404,926.95173 194.71172,920.03891 203.96875,913.40625 C 213.3466,906.68702 222.89348,900.22389 232.3125,893.5625 C 242.24279,886.53951 252.10302,879.41359 262,872.34375 C 282.9093,858.49623 303.1669,843.70087 323.875,829.5625 C 334.22764,822.49428 344.74627,815.68612 355.125,808.65625 C 365.57028,801.5813 375.88648,794.30723 386.34375,787.25 C 405.58043,774.26785 425.01375,761.5772 444.3125,748.6875 C 453.01561,742.58892 461.70073,736.47016 470.40625,730.375 C 478.25741,724.87805 486.2444,719.58 493.96875,713.90625 C 495.91965,712.47326 497.79664,710.93999 499.71875,709.46875 z"
       id="path3782" />
  </g>
  <g
     inkscape:groupmode="layer"
     id="layer3"
     inkscape:label="Vein 2"
     style="display:none">
    <path
       style="opacity:1;fill:#ffffff;fill-opacity:1;stroke:#009b00;stroke-width:2;stroke-linecap:butt;stroke-linejoin:round;stroke-miterlimit:21.60000038;stroke-dasharray:none;stroke-opacity:1"
       d="M 4.90625,982.21875 C 5.8517206,985.23174 6.9104837,988.1815 8.125,991.0625 C 9.3867188,994.05547 10.776611,996.97817 12.3125,999.8125 C 13.848389,1002.6468 15.518945,1005.4033 17.3125,1008.0625 C 19.106055,1010.7217 21.027783,1013.2825 23.0625,1015.75 C 25.097217,1018.2175 27.240625,1020.5842 29.5,1022.8438 C 31.759375,1025.1029 34.126221,1027.2467 36.59375,1029.2812 C 39.061279,1031.316 41.65332,1033.2379 44.3125,1035.0312 C 44.940642,1035.4549 45.611733,1035.8089 46.25,1036.2188 C 49.013649,1033.7594 51.751603,1031.28 54.5625,1028.875 C 58.950024,1025.121 63.482233,1021.5292 67.875,1017.7812 C 73.478569,1013.0007 78.874647,1007.9992 84.53125,1003.2812 C 90.950113,997.92763 97.578531,992.79855 104.09375,987.5625 C 108.42571,984.16093 111.70151,981.5618 114.875,979.0625 C 116.4487,978.83246 118.0253,978.58909 119.59375,978.3125 C 134.35532,975.41923 149.0944,972.45235 163.96875,970.1875 C 186.18049,966.87428 208.68316,965.80814 231.125,966.125 C 236.69944,966.20371 242.2716,966.50931 247.84375,966.6875 C 253.71985,967.02789 259.59454,967.3156 265.46875,967.6875 C 285.54115,968.95825 305.55313,970.82351 325.53125,973.15625 C 334.39365,974.19105 362.17338,977.88332 370.6875,979 C 378.5395,980.13196 386.3955,981.2606 394.25,982.375 C 414.69683,985.27591 424.75992,986.47476 445.21875,989.9375 C 459.68817,992.38649 474.08798,995.22298 488.46875,998.15625 C 489.67373,995.83166 490.85147,993.49046 491.875,991.0625 C 493.13672,988.06953 494.24771,985.01011 495.21875,981.875 C 495.27224,981.70232 495.29117,981.51684 495.34375,981.34375 C 478.69446,979.06824 462.05896,976.6893 445.46875,974 C 371.6392,962.03223 466.97922,977.16697 394.5,965.21875 C 386.66078,963.92645 378.79057,962.79913 370.9375,961.59375 C 330.106,955.10349 289.19109,948.81166 247.9375,945.6875 C 241.39731,945.28434 222.06944,944.05047 215.28125,943.875 C 198.052,943.4296 180.83974,944.44289 163.65625,945.53125 C 162.07452,945.69433 160.48681,945.88959 158.90625,946.0625 C 164.7415,941.92481 170.60488,937.82039 176.40625,933.625 C 185.63404,926.95173 194.71172,920.03891 203.96875,913.40625 C 213.3466,906.68702 222.89348,900.22389 232.3125,893.5625 C 242.24279,886.53951 252.10302,879.41359 262,872.34375 C 266.19538,869.56529 270.34819,866.74806 274.5,863.90625 C 285.20087,861.85534 295.92262,859.87586 306.65625,858 C 326.53015,854.46182 346.51591,851.6875 366.5625,849.34375 C 386.5011,847.01457 406.54388,845.84911 426.59375,845.0625 C 438.99742,844.73275 451.40179,844.19526 463.8125,844.21875 C 471.76857,844.23381 476.31831,844.44988 484.28125,844.71875 C 489.43019,844.96427 494.5732,845.30013 499.71875,845.59375 L 499.71875,830.28125 C 491.20306,829.92396 482.67526,829.52522 474.15625,829.53125 C 464.98818,829.53778 455.8179,830.09013 446.65625,830.34375 C 426.42859,831.3 406.21771,832.49007 386.09375,834.8125 C 366.23461,836.91708 346.46594,839.69846 326.75,842.875 C 317.01551,844.46786 307.27915,846.14726 297.5625,847.84375 C 306.30249,841.70877 315.05674,835.58313 323.875,829.5625 C 334.22764,822.49428 344.74627,815.68612 355.125,808.65625 C 365.57028,801.5813 375.88648,794.30723 386.34375,787.25 C 405.58043,774.26785 425.01375,761.5772 444.3125,748.6875 C 453.01561,742.58892 461.70073,736.47016 470.40625,730.375 C 478.25741,724.87805 486.2444,719.58 493.96875,713.90625 C 495.91965,712.47326 497.79664,710.93999 499.71875,709.46875 L 499.71875,664.40625 C 496.84374,667.04049 494.87644,668.89053 491.15625,672.28125 C 463.47282,697.51298 471.9671,689.9003 442.15625,714.4375 C 418.91917,732.73519 408.94818,741.02469 384.59375,758.28125 C 374.3335,765.55125 363.81317,772.44157 353.40625,779.5 C 343.00237,786.55639 332.67488,793.74079 322.15625,800.625 C 301.62683,814.06101 280.46847,826.49107 260.125,840.21875 C 250.17501,846.4159 240.16034,852.55215 230.25,858.8125 C 220.73212,864.82495 211.39225,871.11787 201.8125,877.03125 C 192.65657,882.68301 183.27442,887.93998 174.0625,893.5 C 165.42411,898.71385 156.94258,904.16814 148.28125,909.34375 C 126.26026,922.50258 122.99186,923.96065 101.0625,935.78125 C 58.533833,957.83788 102.29632,935.49807 64.09375,954.0625 C 59.50567,956.29206 55.026656,958.74067 50.46875,961.03125 C 46.672711,962.93899 42.801656,964.69832 39.03125,966.65625 C 35.956436,968.25295 33.007296,970.08114 29.9375,971.6875 C 27.364825,973.0337 24.732977,974.2548 22.125,975.53125 C 18.46461,977.03579 14.819057,978.53259 11.15625,980.03125 C 9.539572,980.69272 7.561502,981.51877 5.84375,982.03125 C 5.5280474,982.12544 5.2149497,982.15331 4.90625,982.21875 z"
       id="path3789" />
  </g>
  <g
     inkscape:groupmode="layer"
     id="layer4"
     inkscape:label="Vein 3"
     style="display:inline" />
  <g
     inkscape:groupmode="layer"
     id="layer7"
     inkscape:label="Glass 2"
     style="display:none">
    <path
       sodipodi:type="arc"
       style="opacity:0.21153846;fill:#ffffff;fill-opacity:0.36257306;stroke:#ffffff;stroke-width:2;stroke-miterlimit:4;stroke-dasharray:none;stroke-opacity:0.50292394"
       id="path4818"
       sodipodi:cx="243"
       sodipodi:cy="602.36218"
       sodipodi:rx="391"
       sodipodi:ry="190"
       d="M 634,602.36218 A 391,190 0 1 1 -148,602.36218 A 391,190 0 1 1 634,602.36218 z"
       transform="translate(-6,10)" />
  </g>
  <g
     inkscape:groupmode="layer"
     id="layer8"
     inkscape:label="Glass 3"
     style="display:none">
    <path
       sodipodi:type="arc"
       style="opacity:0.27884617;fill:#ffffff;fill-opacity:1;stroke:#ffffff;stroke-width:2;stroke-miterlimit:4;stroke-dasharray:none;stroke-opacity:0.65497077;filter:url(#filter5687)"
       id="path5493"
       sodipodi:cx="288"
       sodipodi:cy="582.36218"
       sodipodi:rx="316"
       sodipodi:ry="66"
       d="M 604,582.36218 A 316,66 0 1 1 -28,582.36218 A 316,66 0 1 1 604,582.36218 z"
       transform="matrix(0.58696,0,0,0.4618085,81.955515,479.42236)" />
  </g>
</svg>
