<?xml version="1.0" encoding="UTF-8" standalone="no"?>
<!-- Created with Inkscape (http://www.inkscape.org/) -->
<svg
   xmlns:dc="http://purl.org/dc/elements/1.1/"
   xmlns:cc="http://creativecommons.org/ns#"
   xmlns:rdf="http://www.w3.org/1999/02/22-rdf-syntax-ns#"
   xmlns:svg="http://www.w3.org/2000/svg"
   xmlns="http://www.w3.org/2000/svg"
   xmlns:xlink="http://www.w3.org/1999/xlink"
   xmlns:sodipodi="http://sodipodi.sourceforge.net/DTD/sodipodi-0.dtd"
   xmlns:inkscape="http://www.inkscape.org/namespaces/inkscape"
   width="744.09448819"
   height="1052.3622047"
   id="svg2"
   sodipodi:version="0.32"
   inkscape:version="0.46"
   sodipodi:docname="Pith_Logo_B001.svg"
   inkscape:output_extension="org.inkscape.output.svg.inkscape">
  <defs
     id="defs4">
    <linearGradient
       id="linearGradient4809">
      <stop
         style="stop-color:#144c22;stop-opacity:1;"
         offset="0"
         id="stop4811" />
      <stop
         style="stop-color:#144c22;stop-opacity:0;"
         offset="1"
         id="stop4813" />
    </linearGradient>
    <inkscape:perspective
       sodipodi:type="inkscape:persp3d"
       inkscape:vp_x="0 : 526.18109 : 1"
       inkscape:vp_y="0 : 1000 : 0"
       inkscape:vp_z="744.09448 : 526.18109 : 1"
       inkscape:persp3d-origin="372.04724 : 350.78739 : 1"
       id="perspective10" />
    <linearGradient
       inkscape:collect="always"
       xlink:href="#linearGradient4809"
       id="linearGradient4815"
       x1="-0.71145806"
       y1="802.36217"
       x2="500.71142"
       y2="802.36217"
       gradientUnits="userSpaceOnUse" />
    <filter
       inkscape:collect="always"
       id="filter5687"
       x="-0.029780052"
       width="1.0595601"
       y="-0.14058214"
       height="1.2811643">
      <feGaussianBlur
         inkscape:collect="always"
         stdDeviation="7.864093"
         id="feGaussianBlur5689" />
    </filter>
  </defs>
  <sodipodi:namedview
     id="base"
     pagecolor="#ffffff"
     bordercolor="#666666"
     borderopacity="1.0"
     gridtolerance="10000"
     guidetolerance="10"
     objecttolerance="10"
     inkscape:pageopacity="0.0"
     inkscape:pageshadow="2"
     inkscape:zoom="0.5"
     inkscape:cx="63"
     inkscape:cy="250.20918"
     inkscape:document-units="px"
     inkscape:current-layer="layer8"
     showgrid="false"
     inkscape:window-width="1276"
     inkscape:window-height="750"
     inkscape:window-x="0"
     inkscape:window-y="14" />
  <metadata
     id="metadata7">
    <rdf:RDF>
      <cc:Work
         rdf:about="">
        <dc:format>image/svg+xml</dc:format>
        <dc:type
           rdf:resource="http://purl.org/dc/dcmitype/StillImage" />
      </cc:Work>
    </rdf:RDF>
  </metadata>
  <g
     inkscape:label="Layer 1"
     inkscape:groupmode="layer"
     id="layer1"
     style="display:inline">
    <rect
       style="fill:#2fb251;fill-opacity:1;fill-rule:evenodd;stroke:#000000;stroke-width:2;stroke-linecap:butt;stroke-linejoin:round;stroke-miterlimit:21.60000038;stroke-dasharray:none;stroke-opacity:1"
       id="rect2389"
       width="499.42288"
       height="499.42294"
       x="0.28854194"
       y="552.6507"
       ry="100"
       rx="100"
       inkscape:export-filename="C:\Users\Work\Desktop\path3261.png"
       inkscape:export-xdpi="90"
       inkscape:export-ydpi="90" />
  </g>
  <g
     inkscape:groupmode="layer"
     id="layer6"
     inkscape:label="Glass 1"
     style="display:inline">
    <rect
       style="opacity:0.67788463;fill:url(#linearGradient4815);fill-opacity:1;fill-rule:evenodd;stroke:#000000;stroke-width:2;stroke-linecap:butt;stroke-linejoin:round;stroke-miterlimit:21.60000038;stroke-dasharray:none;stroke-opacity:1;display:inline"
       id="rect3267"
       width="499.42288"
       height="499.42294"
       x="0.28854194"
       y="552.6507"
       ry="100"
       rx="100"
       inkscape:export-filename="C:\Users\Work\Desktop\path3261.png"
       inkscape:export-xdpi="90"
       inkscape:export-ydpi="90" />
  </g>
  <g
     inkscape:groupmode="layer"
     id="layer2"
     inkscape:label="Vein 1"
     style="display:none">
    <path
       style="opacity:1;fill:#ffffff;fill-opacity:1;stroke:#009b00;stroke-width:2;stroke-linecap:butt;stroke-linejoin:round;stroke-miterlimit:21.60000038;stroke-dasharray:none;stroke-opacity:1"
       d="M 499.71875,709.46875 L 499.71875,664.40625 C 496.84374,667.04049 494.87644,668.89053 491.15625,672.28125 C 463.47282,697.51298 471.9671,689.9003 442.15625,714.4375 C 418.91917,732.73519 408.94818,741.02469 384.59375,758.28125 C 374.3335,765.55125 363.81317,772.44157 353.40625,779.5 C 343.00237,786.55639 332.67488,793.74079 322.15625,800.625 C 301.62683,814.06101 280.46847,826.49107 260.125,840.21875 C 250.17501,846.4159 240.16034,852.55215 230.25,858.8125 C 220.73212,864.82495 211.39225,871.11787 201.8125,877.03125 C 192.65657,882.68301 183.27442,887.93998 174.0625,893.5 C 165.42411,898.71385 156.94258,904.16814 148.28125,909.34375 C 126.26026,922.50258 122.99186,923.96065 101.0625,935.78125 C 58.533833,957.83788 102.29632,935.49807 64.09375,954.0625 C 59.50567,956.29206 55.026656,958.74067 50.46875,961.03125 C 46.672711,962.93899 42.801656,964.69832 39.03125,966.65625 C 35.956436,968.25295 33.007296,970.08114 29.9375,971.6875 C 27.364825,973.0337 24.732977,974.2548 22.125,975.53125 C 18.46461,977.03579 14.819057,978.53259 11.15625,980.03125 C 9.539572,980.69272 7.561502,981.51877 5.84375,982.03125 C 5.5280474,982.12544 5.2149497,982.15331 4.90625,982.21875 C 5.8517206,985.23174 6.9104837,988.1815 8.125,991.0625 C 9.3867188,994.05547 10.776611,996.97817 12.3125,999.8125 C 13.848389,1002.6468 15.518945,1005.4033 17.3125,1008.0625 C 19.106055,1010.7217 21.027783,1013.2825 23.0625,1015.75 C 25.097217,1018.2175 27.240625,1020.5844 29.5,1022.8438 C 31.759375,1025.1031 34.126221,1027.2465 36.59375,1029.2812 C 39.061279,1031.316 41.65332,1033.2377 44.3125,1035.0312 C 44.940642,1035.4549 45.611733,1035.8091 46.25,1036.2188 C 49.013649,1033.7594 51.751603,1031.28 54.5625,1028.875 C 58.950024,1025.121 63.482233,1021.5292 67.875,1017.7812 C 73.478569,1013.0005 78.874647,1007.9992 84.53125,1003.2812 C 90.950113,997.92751 97.578531,992.79855 104.09375,987.5625 C 125.07456,971.08781 128.80298,967.88905 150.78125,951.875 C 159.26215,945.69555 167.9033,939.7741 176.40625,933.625 C 185.63404,926.95173 194.71172,920.03891 203.96875,913.40625 C 213.3466,906.68702 222.89348,900.22389 232.3125,893.5625 C 242.24279,886.53951 252.10302,879.41359 262,872.34375 C 282.9093,858.49623 303.1669,843.70087 323.875,829.5625 C 334.22764,822.49428 344.74627,815.68612 355.125,808.65625 C 365.57028,801.5813 375.88648,794.30723 386.34375,787.25 C 405.58043,774.26785 425.01375,761.5772 444.3125,748.6875 C 453.01561,742.58892 461.70073,736.47016 470.40625,730.375 C 478.25741,724.87805 486.2444,719.58 493.96875,713.90625 C 495.91965,712.47326 497.79664,710.93999 499.71875,709.46875 z"
       id="path3782" />
  </g>
  <g
     inkscape:groupmode="layer"
     id="layer3"
     inkscape:label="Vein 2"
     style="display:none">
    <path
       style="opacity:1;fill:#ffffff;fill-opacity:1;stroke:#009b00;stroke-width:2;stroke-linecap:butt;stroke-linejoin:round;stroke-miterlimit:21.60000038;stroke-dasharray:none;stroke-opacity:1"
       d="M 4.90625,982.21875 C 5.8517206,985.23174 6.9104837,988.1815 8.125,991.0625 C 9.3867188,994.05547 10.776611,996.97817 12.3125,999.8125 C 13.848389,1002.6468 15.518945,1005.4033 17.3125,1008.0625 C 19.106055,1010.7217 21.027783,1013.2825 23.0625,1015.75 C 25.097217,1018.2175 27.240625,1020.5842 29.5,1022.8438 C 31.759375,1025.1029 34.126221,1027.2467 36.59375,1029.2812 C 39.061279,1031.316 41.65332,1033.2379 44.3125,1035.0312 C 44.940642,1035.4549 45.611733,1035.8089 46.25,1036.2188 C 49.013649,1033.7594 51.751603,1031.28 54.5625,1028.875 C 58.950024,1025.121 63.482233,1021.5292 67.875,1017.7812 C 73.478569,1013.0007 78.874647,1007.9992 84.53125,1003.2812 C 90.950113,997.92763 97.578531,992.79855 104.09375,987.5625 C 108.42571,984.16093 111.70151,981.5618 114.875,979.0625 C 116.4487,978.83246 118.0253,978.58909 119.59375,978.3125 C 134.35532,975.41923 149.0944,972.45235 163.96875,970.1875 C 186.18049,966.87428 208.68316,965.80814 231.125,966.125 C 236.69944,966.20371 242.2716,966.50931 247.84375,966.6875 C 253.71985,967.02789 259.59454,967.3156 265.46875,967.6875 C 285.54115,968.95825 305.55313,970.82351 325.53125,973.15625 C 334.39365,974.19105 362.17338,977.88332 370.6875,979 C 378.5395,980.13196 386.3955,981.2606 394.25,982.375 C 414.69683,985.27591 424.75992,986.47476 445.21875,989.9375 C 459.68817,992.38649 474.08798,995.22298 488.46875,998.15625 C 489.67373,995.83166 490.85147,993.49046 491.875,991.0625 C 493.13672,988.06953 494.24771,985.01011 495.21875,981.875 C 495.27224,981.70232 495.29117,981.51684 495.34375,981.34375 C 478.69446,979.06824 462.05896,976.6893 445.46875,974 C 371.6392,962.03223 466.97922,977.16697 394.5,965.21875 C 386.66078,963.92645 378.79057,962.79913 370.9375,961.59375 C 330.106,955.10349 289.19109,948.81166 247.9375,945.6875 C 241.39731,945.28434 222.06944,944.05047 215.28125,943.875 C 198.052,943.4296 180.83974,944.44289 163.65625,945.53125 C 162.07452,945.69433 160.48681,945.88959 158.90625,946.0625 C 164.7415,941.92481 170.60488,937.82039 176.40625,933.625 C 185.63404,926.95173 194.71172,920.03891 203.96875,913.40625 C 213.3466,906.68702 222.89348,900.22389 232.3125,893.5625 C 242.24279,886.53951 252.10302,879.41359 262,872.34375 C 266.19538,869.56529 270.34819,866.74806 274.5,863.90625 C 285.20087,861.85534 295.92262,859.87586 306.65625,858 C 326.53015,854.46182 346.51591,851.6875 366.5625,849.34375 C 386.5011,847.01457 406.54388,845.84911 426.59375,845.0625 C 438.99742,844.73275 451.40179,844.19526 463.8125,844.21875 C 471.76857,844.23381 476.31831,844.44988 484.28125,844.71875 C 489.43019,844.96427 494.5732,845.30013 499.71875,845.59375 L 499.71875,830.28125 C 491.20306,829.92396 482.67526,829.52522 474.15625,829.53125 C 464.98818,829.53778 455.8179,830.09013 446.65625,830.34375 C 426.42859,831.3 406.21771,832.49007 386.09375,834.8125 C 366.23461,836.91708 346.46594,839.69846 326.75,842.875 C 317.01551,844.46786 307.27915,846.14726 297.5625,847.84375 C 306.30249,841.70877 315.05674,835.58313 323.875,829.5625 C 334.22764,822.49428 344.74627,815.68612 355.125,808.65625 C 365.57028,801.5813 375.88648,794.30723 386.34375,787.25 C 405.58043,774.26785 425.01375,761.5772 444.3125,748.6875 C 453.01561,742.58892 461.70073,736.47016 470.40625,730.375 C 478.25741,724.87805 486.2444,719.58 493.96875,713.90625 C 495.91965,712.47326 497.79664,710.93999 499.71875,709.46875 L 499.71875,664.40625 C 496.84374,667.04049 494.87644,668.89053 491.15625,672.28125 C 463.47282,697.51298 471.9671,689.9003 442.15625,714.4375 C 418.91917,732.73519 408.94818,741.02469 384.59375,758.28125 C 374.3335,765.55125 363.81317,772.44157 353.40625,779.5 C 343.00237,786.55639 332.67488,793.74079 322.15625,800.625 C 301.62683,814.06101 280.46847,826.49107 260.125,840.21875 C 250.17501,846.4159 240.16034,852.55215 230.25,858.8125 C 220.73212,864.82495 211.39225,871.11787 201.8125,877.03125 C 192.65657,882.68301 183.27442,887.93998 174.0625,893.5 C 165.42411,898.71385 156.94258,904.16814 148.28125,909.34375 C 126.26026,922.50258 122.99186,923.96065 101.0625,935.78125 C 58.533833,957.83788 102.29632,935.49807 64.09375,954.0625 C 59.50567,956.29206 55.026656,958.74067 50.46875,961.03125 C 46.672711,962.93899 42.801656,964.69832 39.03125,966.65625 C 35.956436,968.25295 33.007296,970.08114 29.9375,971.6875 C 27.364825,973.0337 24.732977,974.2548 22.125,975.53125 C 18.46461,977.03579 14.819057,978.53259 11.15625,980.03125 C 9.539572,980.69272 7.561502,981.51877 5.84375,982.03125 C 5.5280474,982.12544 5.2149497,982.15331 4.90625,982.21875 z"
       id="path3789" />
  </g>
  <g
     inkscape:groupmode="layer"
     id="layer4"
     inkscape:label="Vein 3"
     style="display:inline">
    <path
       style="fill:#ffffff;stroke:#009b00;stroke-width:2;stroke-miterlimit:4;stroke-dasharray:none;stroke-opacity:1;display:inline"
       d="M 373.625 552.65625 L 353.5625 552.65625 C 350.15872 562.21054 346.71698 571.75302 343.4375 581.34375 C 336.929 599.71267 330.83286 618.24577 323.03125 636.125 C 314.21978 657.18463 305.61799 678.32901 296.625 699.3125 C 285.95995 723.59825 275.24314 747.89387 262.8125 771.34375 C 252.69895 790.10302 259.51486 777.68552 249.3125 795.8125 C 243.84541 805.52611 238.48906 815.31706 232.75 824.875 C 231.07984 827.6565 229.30768 830.37025 227.59375 833.125 C 219.64063 844.8853 211.21393 856.30628 202.5625 867.5625 C 198.47583 873.12592 194.33049 878.63776 190.0625 884.0625 C 184.7222 887.19556 179.36561 890.29921 174.0625 893.5 C 165.42411 898.71385 156.94258 904.16814 148.28125 909.34375 C 126.26026 922.50258 122.99186 923.96065 101.0625 935.78125 C 58.533833 957.83788 102.29632 935.49807 64.09375 954.0625 C 59.50567 956.29206 55.026656 958.74067 50.46875 961.03125 C 46.672711 962.93899 42.801656 964.69832 39.03125 966.65625 C 35.956436 968.25295 33.007296 970.08114 29.9375 971.6875 C 27.364825 973.0337 24.732977 974.2548 22.125 975.53125 C 18.46461 977.03579 14.819057 978.53259 11.15625 980.03125 C 9.539572 980.69272 7.561502 981.51877 5.84375 982.03125 C 5.5280474 982.12544 5.2149497 982.15331 4.90625 982.21875 C 5.8517206 985.23174 6.9104837 988.1815 8.125 991.0625 C 9.3867188 994.05547 10.776611 996.97817 12.3125 999.8125 C 13.848389 1002.6468 15.518945 1005.4033 17.3125 1008.0625 C 19.106055 1010.7217 21.027783 1013.2825 23.0625 1015.75 C 25.097217 1018.2175 27.240625 1020.5842 29.5 1022.8438 C 31.759375 1025.1027 34.126221 1027.2468 36.59375 1029.2812 C 39.061279 1031.316 41.65332 1033.2381 44.3125 1035.0312 C 44.940642 1035.4549 45.611733 1035.8087 46.25 1036.2188 C 49.013649 1033.7594 51.751603 1031.28 54.5625 1028.875 C 58.950024 1025.121 63.482233 1021.5292 67.875 1017.7812 C 73.478569 1013.0009 78.874647 1007.9992 84.53125 1003.2812 C 90.950113 997.92775 97.578531 992.79855 104.09375 987.5625 C 108.42571 984.16093 111.70151 981.5618 114.875 979.0625 C 116.4487 978.83246 118.0253 978.58909 119.59375 978.3125 C 134.35532 975.41923 149.0944 972.45235 163.96875 970.1875 C 186.18049 966.87428 208.68316 965.80814 231.125 966.125 C 236.69944 966.20371 242.2716 966.50931 247.84375 966.6875 C 253.71985 967.02789 259.59454 967.3156 265.46875 967.6875 C 285.54115 968.95825 305.55313 970.82351 325.53125 973.15625 C 334.39365 974.19105 362.17338 977.88332 370.6875 979 C 378.5395 980.13196 386.3955 981.2606 394.25 982.375 C 414.69683 985.27591 424.75992 986.47476 445.21875 989.9375 C 459.68817 992.38649 474.08798 995.22298 488.46875 998.15625 C 489.67373 995.83166 490.85147 993.49046 491.875 991.0625 C 493.13672 988.06953 494.24771 985.01011 495.21875 981.875 C 495.27224 981.70232 495.29117 981.51684 495.34375 981.34375 C 478.69446 979.06824 462.05896 976.6893 445.46875 974 C 371.6392 962.03223 466.97922 977.16697 394.5 965.21875 C 386.66078 963.92645 378.79057 962.79913 370.9375 961.59375 C 330.106 955.10349 289.19109 948.81166 247.9375 945.6875 C 241.39731 945.28434 222.06944 944.05047 215.28125 943.875 C 198.052 943.4296 180.83974 944.44289 163.65625 945.53125 C 162.07452 945.69433 160.48681 945.88959 158.90625 946.0625 C 164.7415 941.92481 170.60488 937.82039 176.40625 933.625 C 185.63404 926.95173 194.71172 920.03891 203.96875 913.40625 C 213.3466 906.68702 222.89348 900.22389 232.3125 893.5625 C 242.24279 886.53951 252.10302 879.41359 262 872.34375 C 266.19538 869.56529 270.34819 866.74806 274.5 863.90625 C 285.20087 861.85534 295.92262 859.87586 306.65625 858 C 326.53015 854.46182 346.51591 851.6875 366.5625 849.34375 C 386.5011 847.01457 406.54388 845.84911 426.59375 845.0625 C 438.99742 844.73275 451.40179 844.19526 463.8125 844.21875 C 471.76857 844.23381 476.31831 844.44988 484.28125 844.71875 C 489.43019 844.96427 494.5732 845.30013 499.71875 845.59375 L 499.71875 830.28125 C 491.20306 829.92396 482.67526 829.52522 474.15625 829.53125 C 464.98818 829.53778 455.8179 830.09013 446.65625 830.34375 C 426.42859 831.3 406.21771 832.49007 386.09375 834.8125 C 366.23461 836.91708 346.46594 839.69846 326.75 842.875 C 317.01551 844.46786 307.27915 846.14726 297.5625 847.84375 C 306.30249 841.70877 315.05674 835.58313 323.875 829.5625 C 334.22764 822.49428 344.74627 815.68612 355.125 808.65625 C 365.57028 801.5813 375.88648 794.30723 386.34375 787.25 C 405.58043 774.26785 425.01375 761.5772 444.3125 748.6875 C 453.01561 742.58892 461.70073 736.47016 470.40625 730.375 C 478.25741 724.87805 486.2444 719.58 493.96875 713.90625 C 495.91965 712.47326 497.79664 710.93999 499.71875 709.46875 L 499.71875 664.40625 C 496.84374 667.04049 494.87644 668.89053 491.15625 672.28125 C 463.47282 697.51298 471.9671 689.9003 442.15625 714.4375 C 418.91917 732.73519 408.94818 741.02469 384.59375 758.28125 C 374.3335 765.55125 363.81317 772.44157 353.40625 779.5 C 343.00237 786.55639 332.67488 793.74079 322.15625 800.625 C 301.62683 814.06101 280.46847 826.49107 260.125 840.21875 C 250.17501 846.4159 240.16034 852.55215 230.25 858.8125 C 227.98512 860.24323 225.7191 861.70265 223.46875 863.15625 C 225.07134 860.9216 226.66575 858.68722 228.25 856.4375 C 236.5312 845.44412 244.47491 834.19486 251.78125 822.53125 C 263.58723 802.55036 274.29935 781.93091 285 761.34375 C 297.35605 737.59567 308.47341 713.24102 319.46875 688.84375 C 328.4685 667.7078 337.41595 646.54146 346.34375 625.375 C 354.30205 607.36528 360.67951 588.72197 367.28125 570.1875 C 369.34365 564.32239 371.48157 558.48978 373.625 552.65625 z "
       id="path3261"
       inkscape:export-xdpi="90"
       inkscape:export-ydpi="90" />
  </g>
  <g
     inkscape:groupmode="layer"
     id="layer7"
     inkscape:label="Glass 2"
     style="display:none">
    <path
       sodipodi:type="arc"
       style="opacity:0.21153846;fill:#ffffff;fill-opacity:0.36257306;stroke:#ffffff;stroke-width:2;stroke-miterlimit:4;stroke-dasharray:none;stroke-opacity:0.50292394"
       id="path4818"
       sodipodi:cx="243"
       sodipodi:cy="602.36218"
       sodipodi:rx="391"
       sodipodi:ry="190"
       d="M 634,602.36218 A 391,190 0 1 1 -148,602.36218 A 391,190 0 1 1 634,602.36218 z"
       transform="translate(-6,10)" />
  </g>
  <g
     inkscape:groupmode="layer"
     id="layer8"
     inkscape:label="Glass 3"
     style="display:none">
    <path
       sodipodi:type="arc"
       style="opacity:0.27884617;fill:#ffffff;fill-opacity:1;stroke:#ffffff;stroke-width:2;stroke-miterlimit:4;stroke-dasharray:none;stroke-opacity:0.65497077;filter:url(#filter5687)"
       id="path5493"
       sodipodi:cx="288"
       sodipodi:cy="582.36218"
       sodipodi:rx="316"
       sodipodi:ry="66"
       d="M 604,582.36218 A 316,66 0 1 1 -28,582.36218 A 316,66 0 1 1 604,582.36218 z"
       transform="matrix(0.58696,0,0,0.4618085,81.955515,479.42236)" />
  </g>
</svg>
