<?xml version="1.0" encoding="UTF-8" standalone="no"?>
<svg
   xmlns:dc="http://purl.org/dc/elements/1.1/"
   xmlns:cc="http://creativecommons.org/ns#"
   xmlns:rdf="http://www.w3.org/1999/02/22-rdf-syntax-ns#"
   xmlns:svg="http://www.w3.org/2000/svg"
   xmlns="http://www.w3.org/2000/svg"
   xmlns:xlink="http://www.w3.org/1999/xlink"
   xmlns:sodipodi="http://sodipodi.sourceforge.net/DTD/sodipodi-0.dtd"
   xmlns:inkscape="http://www.inkscape.org/namespaces/inkscape"
   inkscape:export-ydpi="33.026894"
   inkscape:export-xdpi="33.026894"
   inkscape:export-filename="/Users/ian/Desktop/export-200p.png"
   sodipodi:docname="Pith_Logo_2023_0003.svg"
   inkscape:version="1.0 (4035a4f, 2020-05-01)"
   id="svg864"
   version="1.1"
   viewBox="0 0 557.57648 153.81404"
   height="153.81404mm"
   width="557.57648mm">
  <defs
     id="defs858">
    <linearGradient
       gradientTransform="matrix(0.26458333,0,0,0.26458333,6.4144688,-141.3856)"
       gradientUnits="userSpaceOnUse"
       y2="802.36218"
       x2="500.71143"
       y1="802.36218"
       x1="-0.71145809"
       id="linearGradient4815"
       xlink:href="#linearGradient4809"
       inkscape:collect="always" />
    <linearGradient
       id="linearGradient4809">
      <stop
         id="stop4811"
         offset="0"
         style="stop-color:#144c22;stop-opacity:1;" />
      <stop
         id="stop4813"
         offset="1"
         style="stop-color:#144c22;stop-opacity:0;" />
    </linearGradient>
    <filter
       height="1.1309948"
       y="-0.065497406"
       width="1.0132101"
       x="-0.0066050682"
       id="filter1736"
       style="color-interpolation-filters:sRGB"
       inkscape:collect="always">
      <feGaussianBlur
         id="feGaussianBlur1738"
         stdDeviation="1.0343554"
         inkscape:collect="always" />
    </filter>
    <filter
       height="1.0194401"
       y="-0.0097199995"
       width="1.0194401"
       x="-0.0097200004"
       id="filter1795"
       style="color-interpolation-filters:sRGB"
       inkscape:collect="always">
      <feGaussianBlur
         id="feGaussianBlur1797"
         stdDeviation="0.53516289"
         inkscape:collect="always" />
    </filter>
  </defs>
  <sodipodi:namedview
     fit-margin-bottom="0"
     fit-margin-right="0"
     fit-margin-left="0"
     fit-margin-top="0"
     inkscape:window-maximized="0"
     inkscape:window-y="71"
     inkscape:window-x="727"
     inkscape:window-height="1174"
     inkscape:window-width="1828"
     showgrid="false"
     inkscape:document-rotation="0"
     inkscape:current-layer="layer1"
     inkscape:document-units="mm"
     inkscape:cy="188.14551"
     inkscape:cx="989.31752"
     inkscape:zoom="0.49497475"
     inkscape:pageshadow="2"
     inkscape:pageopacity="0.0"
     borderopacity="1.0"
     bordercolor="#666666"
     pagecolor="#ffffff"
     id="base" />
  <metadata
     id="metadata861">
    <rdf:RDF>
      <cc:Work
         rdf:about="">
        <dc:format>image/svg+xml</dc:format>
        <dc:type
           rdf:resource="http://purl.org/dc/dcmitype/StillImage" />
        <dc:title></dc:title>
      </cc:Work>
    </rdf:RDF>
  </metadata>
  <g
     transform="translate(7.8697413,6.0805972)"
     id="layer1"
     inkscape:groupmode="layer"
     inkscape:label="Layer 1">
    <rect
       y="-5.8872027"
       x="-7.6763468"
       height="153.42725"
       width="557.1897"
       id="rect1624"
       style="fill:#9dac93;fill-opacity:1;stroke:#cccccc;stroke-width:0.386789;stroke-linecap:round;stroke-linejoin:round;paint-order:markers stroke fill;stop-color:#000000" />
    <path
       d="m 32.949219,1.0566406 c -16.686638,0 -30.2382815,13.5516434 -30.2382815,30.2382814 v 79.222658 c 0,16.68664 13.5519805,30.23633 30.2382815,30.23633 h 79.222661 c 16.68629,0 30.23632,-13.55003 30.23632,-30.23633 V 31.294922 c 0,-16.686303 -13.54969,-30.2382814 -30.23632,-30.2382814 z"
       inkscape:original="M 32.949219 4.8359375 C 18.291302 4.8359375 6.4902344 16.637005 6.4902344 31.294922 L 6.4902344 110.51758 C 6.4902344 125.1755 18.291302 136.97461 32.949219 136.97461 L 112.17188 136.97461 C 126.82979 136.97461 138.62891 125.1755 138.62891 110.51758 L 138.62891 31.294922 C 138.62891 16.637005 126.82979 4.8359375 112.17188 4.8359375 L 32.949219 4.8359375 z "
       inkscape:radius="3.7797618"
       sodipodi:type="inkscape:offset"
       style="display:inline;fill:#e6e6e6;fill-opacity:1;fill-rule:evenodd;stroke:none;stroke-width:0.529167;stroke-linecap:butt;stroke-linejoin:round;stroke-miterlimit:21.6;stroke-dasharray:none;stroke-opacity:1"
       id="rect2389-9" />
    <rect
       style="display:inline;opacity:0.3;fill:#000000;fill-opacity:1;fill-rule:evenodd;stroke:none;stroke-width:0.529167;stroke-linecap:butt;stroke-linejoin:round;stroke-miterlimit:21.6;stroke-dasharray:none;stroke-opacity:1;filter:url(#filter1795)"
       id="rect2389-4"
       width="132.13898"
       height="132.13899"
       x="7.5491457"
       y="5.8949051"
       ry="26.458334"
       rx="26.458334"
       inkscape:export-filename="C:\Users\Work\Desktop\path3261.png"
       inkscape:export-xdpi="90"
       inkscape:export-ydpi="90" />
    <rect
       inkscape:export-ydpi="90"
       inkscape:export-xdpi="90"
       inkscape:export-filename="C:\Users\Work\Desktop\path3261.png"
       rx="26.458334"
       ry="26.458334"
       y="4.8365726"
       x="6.4908123"
       height="132.13899"
       width="132.13898"
       id="rect2389"
       style="display:inline;fill:#2fb251;fill-opacity:1;fill-rule:evenodd;stroke:#000000;stroke-width:0.529167;stroke-linecap:butt;stroke-linejoin:round;stroke-miterlimit:21.6;stroke-dasharray:none;stroke-opacity:1" />
    <rect
       inkscape:export-ydpi="90"
       inkscape:export-xdpi="90"
       inkscape:export-filename="C:\Users\Work\Desktop\path3261.png"
       rx="26.458334"
       ry="26.458334"
       y="4.8365726"
       x="6.4908123"
       height="132.13899"
       width="132.13898"
       id="rect3267"
       style="display:inline;opacity:0.677885;fill:url(#linearGradient4815);fill-opacity:1;fill-rule:evenodd;stroke:#cccccc;stroke-width:0.529167;stroke-linecap:butt;stroke-linejoin:round;stroke-miterlimit:21.6;stroke-dasharray:none;stroke-opacity:1" />
    <path
       inkscape:export-ydpi="90"
       inkscape:export-xdpi="90"
       id="path3261"
       d="m 105.26943,4.8380699 h -5.308202 c -0.900584,2.5279 -1.811211,5.05268 -2.678907,7.5902301 -1.72204,4.86011 -3.334977,9.76366 -5.399153,14.4942 -2.331368,5.57203 -4.607259,11.16648 -6.986654,16.71836 -2.821794,6.42561 -5.657284,12.85383 -8.946224,19.05827 -2.675877,4.96339 -0.872501,1.67793 -3.571875,6.47403 -1.446501,2.57006 -2.863702,5.16058 -4.382161,7.68945 -0.441897,0.73594 -0.910781,1.45395 -1.364258,2.18281 -2.104263,3.11158 -4.333828,6.13338 -6.622852,9.11159 -1.081265,1.47199 -2.178052,2.93033 -3.307291,4.36563 -1.412955,0.82895 -2.830219,1.65012 -4.233334,2.497 -2.285574,1.3795 -4.529645,2.82261 -6.821289,4.19199 -5.826387,3.48161 -6.691151,3.86739 -12.493293,6.99492 -11.252377,5.83582 0.326448,-0.0749 -9.781315,4.83692 -1.21393,0.5899 -2.399002,1.23776 -3.604948,1.84381 -1.004369,0.50476 -2.028586,0.97025 -3.026172,1.48828 -0.813545,0.42246 -1.593838,0.90617 -2.406055,1.33119 -0.680687,0.35618 -1.37703,0.67926 -2.067057,1.01699 -0.968479,0.39808 -1.933031,0.7941 -2.9021489,1.19063 -0.4277461,0.17501 -0.9511104,0.39357 -1.405599,0.52916 -0.08353,0.0249 -0.16637,0.0323 -0.2480468,0.0496 0.2501557,0.79719 0.5302868,1.57765 0.8516276,2.33991 0.3338297,0.79189 0.701572,1.56519 1.1079427,2.3151 0.4063704,0.74991 0.8483724,1.47924 1.3229164,2.18282 0.474545,0.70358 0.983002,1.38112 1.521354,2.03398 0.538353,0.65286 1.105463,1.27905 1.703256,1.8769 0.597793,0.59767 1.224021,1.16496 1.876888,1.70323 0.652867,0.53838 1.338678,1.04693 2.042253,1.52136 0.166195,0.1121 0.343755,0.20571 0.51263,0.31421 0.731215,-0.65071 1.455632,-1.30672 2.199349,-1.94304 1.160865,-0.99325 2.360012,-1.94358 3.522265,-2.93524 1.482611,-1.26478 2.910324,-2.58815 4.406966,-3.83646 1.698325,-1.41643 3.452094,-2.77353 5.175911,-4.1589 1.146165,-0.9 2.012887,-1.58769 2.852539,-2.24896 0.416375,-0.0609 0.833517,-0.12526 1.248503,-0.19844 3.905665,-0.76551 7.80538,-1.5505 11.740885,-2.14974 5.876856,-0.87662 11.830688,-1.1587 17.768425,-1.07487 1.474904,0.0208 2.949204,0.10169 4.423502,0.14883 1.554718,0.0901 3.109063,0.16619 4.663282,0.26458 5.310822,0.33622 10.605658,0.82974 15.891536,1.44694 2.344843,0.2738 9.694894,1.25071 11.947594,1.54616 2.07751,0.2995 4.15607,0.59812 6.23424,0.89297 5.40989,0.76754 8.07242,1.08473 13.48548,2.00091 3.82837,0.64797 7.63832,1.39845 11.44323,2.17455 0.31882,-0.61505 0.63043,-1.23449 0.90124,-1.87689 0.33383,-0.79189 0.62778,-1.60136 0.8847,-2.43086 0.0142,-0.0457 0.0192,-0.0948 0.0331,-0.14056 -4.40512,-0.60206 -8.8066,-1.23149 -13.19609,-1.94303 -19.53407,-3.16648 5.69131,0.83792 -13.48548,-2.32338 -2.07413,-0.34192 -4.15645,-0.64019 -6.23425,-0.95911 -10.803331,-1.71721 -21.628735,-3.38193 -32.543747,-4.20853 -1.730425,-0.10667 -6.844258,-0.43313 -8.640299,-0.47956 -4.558573,-0.11784 -9.11265,0.15026 -13.659115,0.43822 -0.418499,0.0431 -0.838581,0.0948 -1.256771,0.14056 1.54391,-1.09476 3.095263,-2.18072 4.630208,-3.29075 2.44152,-1.76564 4.843323,-3.59466 7.292579,-5.34955 2.481222,-1.77779 5.007168,-3.48783 7.499283,-5.25032 2.62739,-1.85817 5.236242,-3.74357 7.854818,-5.61413 1.110028,-0.73514 2.208792,-1.48053 3.307292,-2.23242 2.831272,-0.54264 5.668068,-1.06638 8.508008,-1.5627 5.258302,-0.93614 10.546201,-1.67018 15.850194,-2.2903 5.27542,-0.61626 10.57841,-0.92462 15.88327,-1.13274 3.2818,-0.0873 6.56379,-0.22946 9.84746,-0.22325 2.10504,0.004 3.30883,0.0611 5.41569,0.13229 1.36232,0.065 2.72308,0.15383 4.08451,0.23152 V 78.293 c -2.25311,-0.0945 -4.50943,-0.20003 -6.76342,-0.19843 -2.42571,0.002 -4.85202,0.14787 -7.27604,0.21497 -5.3519,0.25301 -10.69936,0.56788 -16.02383,1.18236 -5.25439,0.55683 -10.484854,1.29274 -15.701363,2.1332 -2.575584,0.42144 -5.151662,0.86578 -7.722526,1.31465 2.312456,-1.62322 4.628684,-3.24396 6.961849,-4.83692 2.739136,-1.87013 5.52219,-3.67146 8.26823,-5.53144 2.76365,-1.87192 5.49314,-3.79651 8.25996,-5.66374 5.0897,-3.43486 10.23144,-6.79259 15.33757,-10.20299 2.30269,-1.61359 4.60063,-3.23251 6.90397,-4.84519 2.07728,-1.4544 4.19051,-2.85617 6.23424,-4.35735 0.51618,-0.37915 1.0128,-0.78483 1.52136,-1.17409 V 34.40525 c -0.76068,0.69698 -1.2812,1.18647 -2.2655,2.0836 -7.32457,6.67589 -5.07713,4.6617 -12.96458,11.15384 -6.14815,4.84126 -8.7863,7.03452 -15.23008,11.60032 -2.71469,1.92352 -5.4982,3.74659 -8.251694,5.61413 -2.752693,1.867 -5.485175,3.76788 -8.268229,5.58932 -5.431742,3.55495 -11.029892,6.84373 -16.412435,10.47585 -2.632601,1.63966 -5.282316,3.26321 -7.904427,4.9196 -0.599249,0.37854 -1.1988,0.76468 -1.794205,1.14928 0.424018,-0.59125 0.845872,-1.18243 1.265039,-1.77767 2.191067,-2.90866 4.29284,-5.88503 6.225976,-8.97103 3.123666,-5.28661 5.957914,-10.74217 8.789128,-16.18919 3.269205,-6.28335 6.210673,-12.72718 9.119857,-19.18229 2.381183,-5.59222 4.74853,-11.19248 7.110677,-16.79278 2.105603,-4.76507 3.792973,-9.69778 5.539683,-14.6016901 0.54568,-1.55181 1.11133,-3.09502 1.67845,-4.63847 z"
       style="display:inline;fill:#ffffff;stroke:#009b00;stroke-width:0.529167;stroke-miterlimit:4;stroke-dasharray:none;stroke-opacity:1" />
    <g
       transform="translate(-0.3779762,-1.5119046)"
       style="font-style:normal;font-variant:normal;font-weight:normal;font-stretch:normal;font-size:50.8px;line-height:1.25;font-family:Monda;-inkscape-font-specification:Monda;fill:#008000;fill-opacity:1;stroke:none;stroke-width:0.264583"
       id="text1486-0"
       aria-label="Pith Framework">
      <path
         d="m 514.19141,49.779297 a 2.6729589,2.6729589 0 0 0 -2.67188,2.671875 v 0.529297 8.646484 a 2.6729589,2.6729589 0 0 0 -2.22265,-1.160156 l -0.54102,0.0039 c -2.14003,0.0068 -4.36644,0.509987 -6.52148,1.351563 a 2.6729589,2.6729589 0 0 0 -2.06641,-0.978516 h -5.72266 a 2.6729589,2.6729589 0 0 0 -2.67187,2.671875 v 27.351563 a 2.6729589,2.6729589 0 0 0 2.67187,2.671874 h 5.72266 a 2.6729589,2.6729589 0 0 0 2.67187,-2.666015 c 0.0151,-6.171479 -0.0225,-12.322622 0.0234,-18.449219 0.0235,-0.01988 -0.04,0.03142 0.0937,-0.05664 0.27828,-0.183218 0.82553,-0.429704 1.45899,-0.728516 1.37562,-0.56305 2.98741,-0.793032 4.69921,-0.785156 a 2.6729589,2.6729589 0 0 0 2.4043,-1.482422 v 21.496094 a 2.6729589,2.6729589 0 0 0 2.67188,2.671874 h 5.7207 a 2.6729589,2.6729589 0 0 0 2.67187,-2.671874 v -7.484376 c 0.14169,-0.140866 0.2841,-0.281008 0.42579,-0.421874 2.45566,3.179798 4.91185,6.359269 7.36718,9.539062 a 2.6729589,2.6729589 0 0 0 2.11524,1.039062 h 6.74219 a 2.6729589,2.6729589 0 0 0 2.08984,-4.33789 c -3.57535,-4.481397 -7.15116,-8.962212 -10.72656,-13.44336 3.21482,-3.476101 6.42961,-6.952343 9.64453,-10.427734 A 2.6729589,2.6729589 0 0 0 538.2793,60.84375 h -6.54883 a 2.6729589,2.6729589 0 0 0 -1.94141,0.835938 c -2.40087,2.539184 -4.8032,5.078315 -7.20508,7.617187 V 52.451172 a 2.6729589,2.6729589 0 0 0 -2.67187,-2.671875 z m -284.66016,0.02539 a 2.6729589,2.6729589 0 0 0 -2.67187,2.671874 v 0.529297 37.861329 a 2.6729589,2.6729589 0 0 0 2.67187,2.671874 h 5.72266 a 2.6729589,2.6729589 0 0 0 2.67187,-2.666015 c 0.0153,-6.523482 -0.0277,-13.026323 0.0234,-19.505859 0.0188,-0.161432 0.04,-0.238102 0.36328,-0.462891 0.33283,-0.231461 0.95485,-0.448375 1.47461,-0.501953 1.67724,-0.138034 3.03042,-0.023 3.82031,0.414062 0.0401,0.288817 0.0172,0.914195 0.0215,1.740235 v 18.310547 a 2.6729589,2.6729589 0 0 0 2.67187,2.671874 h 5.7207 a 2.6729589,2.6729589 0 0 0 2.67188,-2.679687 c -0.019,-6.791197 0.0385,-13.609317 -0.0273,-20.451172 a 2.6729589,2.6729589 0 0 0 -0.002,-0.08984 c -0.1641,-3.810933 -2.41527,-7.484042 -6.21875,-8.933593 -3.23071,-1.271054 -6.66637,-1.258683 -9.76367,-0.634766 a 2.6729589,2.6729589 0 0 0 -0.0644,0.01367 c -0.23215,0.05271 -0.45912,0.168958 -0.69141,0.234375 v -8.521485 a 2.6729589,2.6729589 0 0 0 -2.67187,-2.671874 z m -67.76563,1.46289 a 2.6729589,2.6729589 0 0 0 -2.67187,2.671875 c 2e-5,0.176129 1e-5,0.352865 0,0.529297 2e-5,12.132807 0,24.265622 0,36.398438 a 2.6729589,2.6729589 0 0 0 2.67187,2.671874 h 6.06836 a 2.6729589,2.6729589 0 0 0 2.67188,-2.671874 V 80.400391 c 2.4913,0.01175 4.98125,0.06155 7.58984,-0.04687 a 2.6729589,2.6729589 0 0 0 0.0586,-0.002 c 3.81394,-0.243126 7.88263,-2.081558 9.87695,-5.96289 a 2.6729589,2.6729589 0 0 0 0.002,-0.0039 c 1.86159,-3.638705 1.91502,-7.575243 1.66211,-11 a 2.6729589,2.6729589 0 0 0 -0.002,-0.02539 c -0.3021,-3.608776 -1.70093,-7.77263 -5.4375,-10.109375 -3.27458,-2.129396 -6.91882,-2.043313 -9.7793,-1.982422 z m 32.64258,0 a 2.6729589,2.6729589 0 0 0 -2.67187,2.671875 v 0.529297 5.367188 a 2.6729589,2.6729589 0 0 0 0.73437,1.839843 2.6729589,2.6729589 0 0 0 -0.73437,1.839844 v 0.529297 26.822266 a 2.6729589,2.6729589 0 0 0 2.67187,2.671874 h 5.72266 a 2.6729589,2.6729589 0 0 0 2.67187,-2.671874 V 63.515625 a 2.6729589,2.6729589 0 0 0 -0.73437,-1.839844 2.6729589,2.6729589 0 0 0 0.73437,-1.839843 v -5.896485 a 2.6729589,2.6729589 0 0 0 -2.67187,-2.671875 z m 79.07813,0 a 2.6729589,2.6729589 0 0 0 -2.67188,2.671875 v 0.529297 36.398438 a 2.6729589,2.6729589 0 0 0 2.67188,2.671874 h 6.04297 a 2.6729589,2.6729589 0 0 0 2.67187,-2.671874 V 77.068359 h 11.81445 a 2.6729589,2.6729589 0 0 0 2.67188,-2.671875 v -4.779296 a 2.6729589,2.6729589 0 0 0 -2.67188,-2.671876 h -11.81445 v -5.554687 h 12.70703 a 2.6729589,2.6729589 0 0 0 2.67188,-2.671875 v -4.779297 a 2.6729589,2.6729589 0 0 0 -2.67188,-2.671875 z m -62.25,1.439453 a 2.6729589,2.6729589 0 0 0 -2.66602,2.492188 c -0.0112,0.165033 -0.0222,0.329094 -0.0332,0.492187 -0.12023,1.717458 -0.2411,3.43488 -0.36133,5.152344 h -2.10937 a 2.6729589,2.6729589 0 0 0 -2.67188,2.671875 v 4.580078 a 2.6729589,2.6729589 0 0 0 2.67188,2.671875 h 1.72461 c -0.001,4.293703 -0.0345,8.597573 0.0234,12.939453 a 2.6729589,2.6729589 0 0 0 0,0.05469 c 0.10159,3.023246 1.37387,6.521663 4.68946,8.228515 3.43389,1.806782 7.05434,1.751348 10.04101,1.746094 a 2.6729589,2.6729589 0 0 0 2.64844,-2.33789 c 0.20894,-1.655857 0.42086,-3.31431 0.62891,-4.978516 a 2.6729589,2.6729589 0 0 0 -2.59375,-3.003906 c -1.94339,-0.04291 -3.37113,-0.08068 -4.34961,-0.41211 -4.7e-4,-0.0042 4.8e-4,0.0024 0,-0.002 -0.0446,-0.396929 0.007,-1.136362 -0.0273,-2.09375 V 70.767578 h 3.92578 a 2.6729589,2.6729589 0 0 0 2.67188,-2.671875 v -4.580078 a 2.6729589,2.6729589 0 0 0 -2.67188,-2.671875 h -3.92578 v -5.464844 a 2.6729589,2.6729589 0 0 0 -2.67187,-2.671875 z m 194.70898,7.648438 c -3.49282,0.07897 -7.77909,0.85788 -10.63476,4.259765 -2.2225,2.562839 -2.64681,5.801456 -2.50586,8.53125 l -0.002,-0.103515 c 0.0413,3.105509 -0.0945,6.346177 0.0703,9.705078 a 2.6729589,2.6729589 0 0 0 0.004,0.04687 c 0.2334,3.490169 1.75953,7.394638 5.41211,9.398437 3.93595,2.184708 8.21365,1.984975 11.73438,1.785157 2.82015,-0.144455 6.51934,-0.934216 8.60547,-4.216797 a 2.6729589,2.6729589 0 0 0 0.0156,-0.02344 c 1.44513,-2.328216 1.61596,-4.747697 1.84961,-6.589843 a 2.6729589,2.6729589 0 0 0 -1.2207,-2.59375 2.6729589,2.6729589 0 0 0 1.21484,-2.283204 c -0.0414,-2.539621 0.0948,-5.24215 -0.0723,-8.085937 a 2.6729589,2.6729589 0 0 0 -0.004,-0.05078 c -0.28937,-3.711117 -2.64943,-6.924018 -6.03125,-8.38086 -2.84536,-1.278179 -5.79921,-1.442419 -8.41992,-1.398437 a 2.6729589,2.6729589 0 0 0 -0.0156,0 z m 69.00977,0 c -3.35608,0.09354 -7.58561,0.689823 -10.52539,3.951172 -2.39615,2.553455 -2.91695,5.913417 -2.76367,8.767578 l -0.004,-0.121094 c 0.0285,3.473626 -0.0605,7.027846 0.043,10.652344 a 2.6729589,2.6729589 0 0 0 0.004,0.08789 c 0.23742,3.872449 2.57999,7.440585 6.26172,8.998047 3.65776,1.571133 7.50829,1.554704 10.92188,1.210938 a 2.6729589,2.6729589 0 0 0 0.0273,-0.0039 c 3.20648,-0.355407 6.85293,-1.641917 9.0332,-4.910157 1.86559,-2.638992 1.98566,-5.654898 1.88672,-8.074219 L 489.8418,81 c -0.0297,-3.299957 0.0636,-6.688888 -0.0449,-10.154297 a 2.6729589,2.6729589 0 0 0 -0.004,-0.08398 c -0.25382,-4.007517 -2.77975,-7.576183 -6.52149,-9.103516 -2.80647,-1.185735 -5.6974,-1.349273 -8.29101,-1.302734 a 2.6729589,2.6729589 0 0 0 -0.0254,0 z m -112.35547,0.0059 c -1.62987,0.05625 -3.34898,0.372282 -4.99805,1.011719 a 2.6729589,2.6729589 0 0 0 -1.59765,-0.529297 h -5.72266 a 2.6729589,2.6729589 0 0 0 -2.67187,2.671875 v 27.351563 a 2.6729589,2.6729589 0 0 0 2.67187,2.671874 h 5.72266 a 2.6729589,2.6729589 0 0 0 2.67187,-2.666015 c 0.0142,-6.530853 -0.0266,-13.043314 0.0215,-19.533203 0.0118,-0.15653 0.0416,-0.248607 0.31445,-0.462891 0.27761,-0.218019 0.79637,-0.423794 1.21094,-0.462891 a 2.6729589,2.6729589 0 0 0 0.0234,-0.002 c 1.63313,-0.168485 2.99337,-0.05044 3.73829,0.398438 -0.0448,-0.06942 -0.1087,-0.206911 -0.0781,-0.0078 0.0458,0.298649 0.0234,0.954313 0.0254,1.794922 v 18.269532 a 2.6729589,2.6729589 0 0 0 2.67188,2.671874 h 5.7207 a 2.6729589,2.6729589 0 0 0 2.67187,-2.666015 c 0.0142,-6.534118 -0.0268,-13.049857 0.0215,-19.542969 0.01,-0.129299 0.0381,-0.217992 0.25976,-0.408203 0.22691,-0.194687 0.65254,-0.385857 1.00586,-0.433594 a 2.6729589,2.6729589 0 0 0 0.0312,-0.0039 c 1.60236,-0.235354 2.93442,-0.190492 3.74219,0.191406 0.0456,0.20027 0.0795,0.643364 0.0508,1.16211 a 2.6729589,2.6729589 0 0 0 -0.004,0.148437 v 18.88086 a 2.6729589,2.6729589 0 0 0 2.67187,2.671874 h 5.72266 a 2.6729589,2.6729589 0 0 0 2.67187,-2.679687 c -0.0207,-6.800989 0.0419,-13.633283 -0.0312,-20.490234 a 2.6729589,2.6729589 0 0 0 -0.002,-0.101563 c -0.16776,-3.411067 -1.9087,-6.977127 -5.41992,-8.611328 -3.29647,-1.571092 -6.85347,-1.519055 -9.94532,-0.978516 a 2.6729589,2.6729589 0 0 0 -0.0508,0.0098 c -1.65666,0.323194 -3.20708,1.068766 -4.65429,2.013672 -2.51444,-1.943304 -5.73732,-2.465561 -8.4668,-2.339844 z m -32.24023,0.01563 c -2.12536,0.04466 -4.49846,0.419733 -6.70118,1.501953 -2.06054,1.012365 -3.97456,2.849671 -4.80468,5.410156 0.0516,-1.3507 0.10523,-2.700246 0.15429,-4.052734 a 2.6729589,2.6729589 0 0 0 -2.6914,-2.769531 l -0.54102,0.0039 c -2.14003,0.0068 -4.36644,0.509989 -6.52148,1.351563 A 2.6729589,2.6729589 0 0 0 307.1875,60.84375 h -5.72266 a 2.6729589,2.6729589 0 0 0 -2.67187,2.671875 v 27.351563 a 2.6729589,2.6729589 0 0 0 2.67187,2.671874 c 1.90756,-3e-6 3.81511,0 5.72266,0 a 2.6729589,2.6729589 0 0 0 2.67188,-2.666015 c 0.0152,-6.171506 -0.0224,-12.322595 0.0234,-18.449219 0.0234,-0.01987 -0.04,0.03142 0.0937,-0.05664 0.27829,-0.183219 0.82553,-0.429702 1.45899,-0.728516 1.37563,-0.563052 2.98741,-0.793032 4.69922,-0.785156 a 2.6729589,2.6729589 0 0 0 2.23242,-1.185547 c -0.11139,1.1481 -0.12183,2.213065 -0.12696,3.050781 a 2.6729589,2.6729589 0 0 0 2.67188,2.6875 h 1.36328 c -1.88575,0.992474 -3.97095,2.370279 -4.7168,5.208984 -1.1945,4.348099 0.45943,9.173597 4.39258,11.65625 a 2.6729589,2.6729589 0 0 0 0.008,0.0059 c 3.38839,2.122656 7.37572,2.148963 10.75196,1.308594 a 2.6729589,2.6729589 0 0 0 0.0508,-0.01367 c 1.37005,-0.369737 2.56496,-1.026844 3.6289,-1.828125 1.00875,0.907443 2.24895,1.573224 3.72852,1.783203 1.46646,0.275218 2.72911,0.201027 3.68359,0.208984 a 2.6729589,2.6729589 0 0 0 2.66407,-2.271484 c 0.23313,-1.535629 0.47025,-3.074728 0.70312,-4.621094 a 2.6729589,2.6729589 0 0 0 -2.41797,-3.0625 c -0.15385,-0.01293 -0.14893,-0.0022 -0.27734,-0.0078 -0.0309,-0.722181 -0.0376,-1.365631 -0.11133,-2.757813 -0.0341,-3.206702 0.0748,-6.519838 -0.0566,-9.927734 a 2.6729589,2.6729589 0 0 0 -0.002,-0.05469 c -0.21044,-3.542839 -1.86786,-7.493543 -5.67774,-9.306641 -2.81969,-1.38117 -5.75802,-1.441854 -8.26757,-1.349609 z m 91.33398,0.466797 a 2.6729589,2.6729589 0 0 0 -2.56836,3.414062 c 0.0651,0.225329 0.13023,0.45059 0.19531,0.675782 2.55811,8.891166 5.11915,17.781335 7.67578,26.671875 a 2.6729589,2.6729589 0 0 0 2.56836,1.933593 h 5.19922 a 2.6729589,2.6729589 0 0 0 2.54492,-1.855468 c 1.26297,-3.940586 2.52709,-7.881604 3.79102,-11.822266 1.26392,3.940659 2.52802,7.881667 3.79101,11.822266 a 2.6729589,2.6729589 0 0 0 2.54493,1.855468 h 5.12304 a 2.6729589,2.6729589 0 0 0 2.56446,-1.921874 c 2.66699,-9.117549 5.3317,-18.235646 8,-27.351563 a 2.6729589,2.6729589 0 0 0 -2.56446,-3.421875 h -5.42773 a 2.6729589,2.6729589 0 0 0 -2.57813,1.96875 c -0.96224,3.532203 -1.92672,7.065281 -2.89062,10.597656 -1.14132,-3.569635 -2.28284,-7.139376 -3.42383,-10.708984 a 2.6729589,2.6729589 0 0 0 -2.54492,-1.857422 h -5.26563 a 2.6729589,2.6729589 0 0 0 -2.55468,1.888672 c -1.08509,3.538448 -2.16923,7.076816 -3.25391,10.615234 -0.99396,-3.519636 -1.98743,-7.03887 -2.98242,-10.558594 a 2.6729589,2.6729589 0 0 0 -2.57227,-1.945312 z m -244.77148,0.619141 c 2.97334,-1.293951 0.2517,15.762074 1.36718,6.724609 -0.71262,1.810718 1.08893,0.05547 -0.79883,1.902344 -1.08635,0.221489 -2.66946,0.04472 -4.70507,0.128906 h -2.2793 v -8.751953 h 6.25195 a 2.6729589,2.6729589 0 0 0 0.16407,-0.0039 z m 130.0957,1.298828 c -0.14833,0.05799 -0.0888,0.07735 -0.19727,0.130859 -0.10555,0.06735 -0.2277,0.07563 -0.33203,0.146484 z m 192.98047,0 c -0.14834,0.05799 -0.0888,0.07735 -0.19727,0.130859 -0.10555,0.06735 -0.2277,0.07563 -0.33203,0.146484 z m -181.32227,4.949219 c -0.007,0.02241 -0.003,0.04016 -0.01,0.0625 -0.005,0.01966 -0.0166,0.03494 -0.0215,0.05469 z m 14.53125,2.609374 c 0.12961,0.255337 1.03058,1.353919 0.0449,0.916016 0.006,-0.03816 -0.0197,0.05111 -0.62695,0.251953 a 2.6729589,2.6729589 0 0 0 -0.0664,0.02344 c -1.05667,0.381314 -2.23688,0.716574 -3.42773,1.074219 0.0218,-0.794441 -0.016,-1.494244 0.008,-1.847657 0.001,-0.01508 -0.003,0.0059 -0.002,-0.0078 0.48021,-0.235868 1.17417,-0.341836 2.57812,-0.400391 0.65722,0.0274 1.24118,0.05424 1.5,0.115234 0.28377,0.06687 0.0523,-0.01815 -0.008,-0.125 z m 142.52735,0.0039 c 4.61493,1.978639 -5.04614,-4.717955 2.89453,0.646484 0.14685,0.348972 0.0273,1.457298 0.14843,3.431641 -0.0329,3.100904 0.0605,6.101746 -0.0508,8.992187 -0.002,0.04223 0.0247,0.03701 -0.14648,0.175781 -0.1774,0.143778 -0.56307,0.315223 -0.88867,0.361329 a 2.6729589,2.6729589 0 0 0 -0.0293,0.0039 c -1.84598,0.28238 -3.57196,0.234395 -4.74805,-0.335938 a 2.6729589,2.6729589 0 0 0 -0.002,-0.002 c -0.0425,-0.02056 -0.24954,-0.353841 -0.19531,-0.96875 a 2.6729589,2.6729589 0 0 0 0.01,-0.216797 c 0.0261,-3.840577 -0.048,-7.620673 0.0391,-11.332031 0.003,-0.05518 -0.0155,-0.06223 0.14844,-0.205078 0.16571,-0.144387 0.5199,-0.313126 0.81446,-0.357422 a 2.6729589,2.6729589 0 0 0 0.1621,-0.0293 c 0.52186,-0.111369 1.14624,-0.156056 1.84376,-0.164062 z m -68.95704,0.01172 c 1.45556,0.05477 2.36802,0.229095 2.77735,0.484374 0.0105,0.04192 0.0121,-0.02955 0.0234,0.240235 0.003,0.07661 0.002,0.282611 0,0.375 h -5.58789 c 0.008,-0.08227 0.005,-0.48898 0.0234,-0.53125 0.27758,-0.25256 1.25592,-0.509837 2.76367,-0.568359 z m -2.86132,10.65039 h 6.78125 a 2.6729589,2.6729589 0 0 0 -0.70704,1.533203 c -0.12471,1.133311 -0.21316,1.336097 -0.1914,1.402344 -0.45012,0.114242 -1.3204,0.0939 -2.93945,0.179687 -1.47216,-0.04559 -2.29282,-0.228592 -2.57227,-0.425781 -0.25449,-0.474329 -0.33693,-1.424857 -0.37109,-2.689453 z m -70.61914,0.4375 v 1.189453 c -0.30011,0.466075 -1.07988,1.010915 -2.20313,1.328125 -0.77464,0.15596 -1.54607,0.251985 -2.08203,0.208985 -0.48249,-0.03871 -0.66214,-0.151963 -0.8418,-0.298829 0.0215,-0.132391 0.0717,-0.584699 0.0234,-0.5625 a 2.6729589,2.6729589 0 0 0 0.19726,-0.09961 c 1.20523,-0.6802 2.97268,-1.064242 4.90626,-1.765625 z"
         inkscape:original="M 514.19141 52.451172 L 514.19141 52.980469 L 514.19141 90.867188 L 519.91211 90.867188 L 519.91211 82.271484 C 521.03257 81.157554 522.15299 80.043621 523.27344 78.929688 C 526.34632 82.908884 529.41948 86.887855 532.49219 90.867188 L 539.23438 90.867188 C 535.18181 85.787634 531.12887 80.708354 527.07617 75.628906 C 530.8106 71.591202 534.54452 67.553004 538.2793 63.515625 L 531.73047 63.515625 C 527.79186 67.681134 523.85144 71.844919 519.91211 76.009766 L 519.91211 52.451172 L 514.19141 52.451172 z M 229.53125 52.476562 L 229.53125 53.005859 L 229.53125 90.867188 L 235.25391 90.867188 C 235.26941 84.278189 235.22284 77.687619 235.27734 71.099609 C 235.49963 69.025849 237.65947 67.922825 239.53711 67.738281 C 241.44741 67.578192 243.57089 67.54043 245.23438 68.628906 C 246.53028 69.496791 246.29372 71.197406 246.30078 72.542969 L 246.30078 90.867188 L 252.02148 90.867188 C 252.00248 84.056067 252.05964 77.243352 251.99414 70.433594 C 251.87352 67.632391 250.15634 64.887856 247.48633 63.875 C 244.87432 62.842144 241.93541 62.819931 239.20898 63.369141 C 237.77299 63.695179 236.38089 64.303206 235.25391 65.263672 L 235.25391 52.476562 L 229.53125 52.476562 z M 161.76562 53.939453 C 161.76564 54.115885 161.76563 54.292318 161.76562 54.46875 C 161.76564 66.601563 161.76562 78.734375 161.76562 90.867188 L 167.83398 90.867188 L 167.83398 77.744141 C 171.21674 77.704941 174.60493 77.824064 177.98438 77.683594 C 181.04704 77.488359 184.20541 75.987794 185.6543 73.167969 C 187.15641 70.231902 187.26748 66.807355 187.0293 63.582031 C 186.77094 60.495708 185.56804 57.20779 182.82422 55.501953 C 180.37929 53.89995 177.34937 53.879505 174.5332 53.939453 L 161.76562 53.939453 z M 194.4082 53.939453 L 194.4082 54.46875 L 194.4082 59.835938 L 200.13086 59.835938 L 200.13086 53.939453 L 194.4082 53.939453 z M 273.48633 53.939453 L 273.48633 54.46875 L 273.48633 90.867188 L 279.5293 90.867188 L 279.5293 74.396484 L 294.01562 74.396484 L 294.01562 69.617188 L 279.5293 69.617188 L 279.5293 58.71875 L 294.9082 58.71875 L 294.9082 53.939453 L 273.48633 53.939453 z M 211.23633 55.378906 C 211.22523 55.542969 211.21422 55.707031 211.20312 55.871094 C 211.02474 58.419271 210.84635 60.967448 210.66797 63.515625 L 206.06641 63.515625 L 206.06641 68.095703 L 210.45703 68.095703 C 210.47723 73.287698 210.41703 78.481167 210.48633 83.671875 C 210.56463 86.002145 211.56019 88.504327 213.73242 89.619141 C 216.42517 91.041758 219.56879 91.069681 222.54102 91.064453 C 222.75034 89.40556 222.96251 87.747024 223.16992 86.087891 C 221.17018 86.043741 219.0178 86.226083 217.18945 85.275391 C 215.90637 84.270432 216.23055 82.434574 216.17969 81.003906 L 216.17969 68.095703 L 222.77734 68.095703 L 222.77734 63.515625 L 216.17969 63.515625 L 216.17969 55.378906 L 211.23633 55.378906 z M 167.83398 58.794922 L 176.75781 58.794922 C 178.25467 58.702732 179.79291 59.528224 180.32812 60.96875 C 181.2027 63.31798 181.12544 65.900006 180.95508 68.363281 C 180.83803 70.145687 180.03509 72.217965 178.125 72.699219 C 176.39266 73.075837 174.59575 72.811253 172.83594 72.890625 L 167.83398 72.890625 L 167.83398 58.794922 z M 406.00586 63.027344 C 402.87911 63.098034 399.44128 63.831378 397.3418 66.345703 C 395.75297 68.163676 395.35386 70.669216 395.47461 73.007812 C 395.51721 76.210069 395.38597 79.418539 395.54297 82.617188 C 395.73245 85.450639 396.9859 88.434502 399.57617 89.853516 C 402.69757 91.589984 406.4192 91.506958 409.87891 91.310547 C 412.29004 91.188138 414.99689 90.493554 416.37305 88.328125 C 417.39702 86.678426 417.60282 84.696701 417.8418 82.8125 L 412.64648 82.8125 C 412.51489 84.008271 412.46592 85.41821 411.4707 86.246094 C 410.04938 87.015595 408.38083 86.68513 406.83398 86.78125 C 405.26206 86.73833 403.41944 86.726247 402.23242 85.539062 C 400.94749 83.883171 401.24665 81.631124 401.19727 79.667969 C 401.31878 79.171383 400.84062 78.075907 401.69727 78.314453 L 417.81641 78.314453 C 417.77311 75.658051 417.90385 72.993539 417.74805 70.341797 C 417.53977 67.670661 415.76194 65.245103 413.30469 64.195312 C 411.02877 63.167867 408.47126 62.985969 406.00586 63.027344 z M 475.0293 63.027344 C 471.95265 63.113094 468.54718 63.707782 466.39453 66.113281 C 464.68109 67.923694 464.20444 70.519524 464.33398 72.931641 C 464.36298 76.463708 464.27615 79.999482 464.37695 83.529297 C 464.55253 86.393149 466.35391 89.108401 469.01758 90.232422 C 472.02626 91.527232 475.41587 91.565364 478.625 91.242188 C 481.34764 90.94041 484.18893 89.851675 485.75391 87.480469 C 487.0889 85.615416 487.26062 83.241276 487.16992 81.023438 C 487.13962 77.659391 487.2303 74.291262 487.125 70.929688 C 486.93799 67.977013 484.99574 65.240004 482.25 64.125 C 479.98085 63.16154 477.46714 62.9836 475.0293 63.027344 z M 362.70508 63.03125 C 360.31778 63.11174 357.84457 63.742204 356.00391 65.333984 L 356.00391 63.515625 L 350.28125 63.515625 L 350.28125 90.867188 L 356.00391 90.867188 C 356.01821 84.298991 355.97519 77.729493 356.02539 71.162109 C 356.16374 69.16708 358.13506 67.927205 359.97266 67.753906 C 361.81918 67.563405 363.87468 67.54175 365.49023 68.580078 C 366.82884 69.459616 366.6003 71.210687 366.60352 72.591797 L 366.60352 90.867188 L 372.32422 90.867188 C 372.33852 84.298991 372.2955 77.729493 372.3457 71.162109 C 372.46939 69.311647 374.20596 68.072202 375.92578 67.839844 C 377.76398 67.56985 379.80632 67.441896 381.48828 68.367188 C 382.77383 69.082309 382.84736 70.687024 382.77539 71.986328 L 382.77539 90.867188 L 388.49805 90.867188 C 388.47725 84.044483 388.5396 77.220087 388.4668 70.398438 C 388.34006 67.821399 386.99449 65.190831 384.58203 64.072266 C 382.00349 62.838094 379.00004 62.826692 376.23242 63.310547 C 374.19733 63.707568 372.25861 64.674888 370.81641 66.177734 C 368.99827 63.609793 365.67487 62.891093 362.70508 63.03125 z M 330.43555 63.046875 C 326.77642 63.119795 322.23168 64.449516 321.23828 68.46875 C 320.82874 69.852902 320.92082 71.309695 320.91211 72.734375 L 326.46094 72.734375 C 326.54184 71.364575 326.15049 69.676733 327.24414 68.609375 C 328.55606 67.671991 330.13064 67.711247 331.67578 67.648438 C 333.02353 67.701967 334.78032 67.664518 335.53711 69.009766 C 336.14102 69.911918 336.0032 71.069715 335.85547 72.083984 C 335.48424 73.146525 334.47002 73.692937 333.46484 74.025391 C 330.63081 75.048084 327.63584 75.671864 324.87305 76.974609 C 322.92663 77.87241 320.71825 79.065189 320.13672 81.306641 C 319.25152 84.502956 320.54101 88.221641 323.37695 90.011719 C 325.9372 91.615589 329.20091 91.704943 332.06445 90.992188 C 333.94119 90.485711 335.547 89.244354 336.72266 87.720703 C 337.37001 89.332013 338.77663 90.672042 340.54297 90.900391 C 341.62287 91.116103 342.72995 91.05533 343.82422 91.064453 C 344.05799 89.524649 344.29541 87.985396 344.52734 86.445312 C 343.69744 86.375573 342.64971 86.58843 342.01953 85.925781 C 341.44926 84.383663 341.78552 82.689849 341.69141 81.082031 C 341.65521 77.785904 341.76372 74.484743 341.63672 71.191406 C 341.46937 68.374023 340.12907 65.390063 337.4668 64.130859 C 335.29791 63.063569 332.80779 62.958764 330.43555 63.046875 z M 316.33594 63.138672 L 315.7832 63.142578 C 313.07654 63.151178 310.25839 63.709539 307.99023 65.25 C 307.6557 65.380789 307.05752 66.34752 307.1875 65.554688 L 307.1875 63.515625 L 301.46484 63.515625 L 301.46484 90.867188 C 303.3724 90.867184 305.27995 90.867188 307.1875 90.867188 C 307.2032 84.482598 307.15604 78.092812 307.21094 71.710938 C 307.63609 70.317917 309.18137 69.74608 310.38477 69.175781 C 312.20585 68.422791 314.18758 68.172628 316.14648 68.181641 C 316.21098 66.500702 316.27496 64.81974 316.33594 63.138672 z M 509.31641 63.138672 L 508.76367 63.142578 C 506.05701 63.151178 503.23884 63.709539 500.9707 65.25 C 500.63616 65.380789 500.03801 66.34752 500.16797 65.554688 L 500.16797 63.515625 L 494.44531 63.515625 L 494.44531 90.867188 L 500.16797 90.867188 C 500.18357 84.482598 500.13641 78.092812 500.19141 71.710938 C 500.61657 70.317917 502.16183 69.74608 503.36523 69.175781 C 505.18631 68.422791 507.16805 68.172628 509.12695 68.181641 C 509.19145 66.500702 509.25542 64.81974 509.31641 63.138672 z M 194.4082 63.515625 L 194.4082 64.044922 L 194.4082 90.867188 L 200.13086 90.867188 L 200.13086 63.515625 L 194.4082 63.515625 z M 421.69336 63.515625 C 421.75846 63.740885 421.82357 63.966146 421.88867 64.191406 C 424.44702 73.083403 427.0073 81.974843 429.56445 90.867188 L 434.76367 90.867188 C 436.87459 84.280918 438.98781 77.695367 441.09961 71.109375 C 443.21144 77.695368 445.3246 84.280918 447.43555 90.867188 L 452.55859 90.867188 C 455.22546 81.750062 457.89008 72.632272 460.55859 63.515625 L 455.13086 63.515625 C 453.37771 69.951078 451.62011 76.385326 449.86523 82.820312 C 447.80802 76.3854 445.75025 69.950642 443.69336 63.515625 L 438.42773 63.515625 C 436.45587 69.945809 434.48511 76.37633 432.51367 82.806641 C 430.69707 76.376365 428.88214 69.945595 427.06445 63.515625 L 421.69336 63.515625 z M 406.77344 67.648438 C 408.38802 67.700428 410.22853 67.725388 411.51758 68.832031 C 412.60511 70.034644 412.13838 71.795841 412.24414 73.263672 C 412.47873 74.112582 411.97566 74.224619 411.24414 74.107422 L 401.19727 74.107422 C 401.31307 72.490224 400.83644 70.652738 401.82422 69.228516 C 402.99379 67.812536 405.073 67.700484 406.77344 67.648438 z M 475.75195 67.648438 C 477.60488 67.683458 479.87482 67.865089 480.97266 69.583984 C 481.76861 71.044793 481.33738 72.774799 481.44922 74.361328 C 481.41442 77.443634 481.52048 80.531461 481.39648 83.609375 C 481.25578 85.306634 479.62652 86.357213 478.06641 86.578125 C 475.9744 86.898141 473.69453 86.947831 471.74805 86.003906 C 470.40796 85.355306 469.93192 83.786682 470.05469 82.394531 C 470.08059 78.577566 470.00205 74.755679 470.09375 70.941406 C 470.18355 69.241902 471.76226 68.111063 473.33203 67.875 C 474.1261 67.705537 474.94166 67.655651 475.75195 67.648438 z M 335.94531 77.119141 C 336.07542 77.249852 335.89049 77.986769 335.96875 78.226562 L 335.96875 83.376953 C 335.31012 85.138083 333.43891 86.088871 331.72266 86.550781 C 329.87804 86.935374 327.62407 87.150203 326.16211 85.708984 C 324.91323 84.293209 325.30039 81.679034 327.07617 80.861328 C 329.80645 79.320424 333.12752 79.124983 335.6875 77.230469 C 335.82212 77.098017 335.90194 77.07557 335.94531 77.119141 z "
         inkscape:radius="2.6726916"
         sodipodi:type="inkscape:offset"
         style="font-style:normal;font-variant:normal;font-weight:normal;font-stretch:normal;font-size:50.8px;line-height:1.25;font-family:Monda;-inkscape-font-specification:Monda;fill:#e6e6e6;fill-opacity:1;stroke:none;stroke-width:0.264583"
         id="path1506-1-4" />
      <path
         d="m 514.19141,51.128906 a 1.3230452,1.3230452 0 0 0 -1.32227,1.322266 v 0.529297 37.886719 a 1.3230452,1.3230452 0 0 0 1.32227,1.322265 h 5.7207 a 1.3230452,1.3230452 0 0 0 1.32227,-1.322265 v -8.044922 c 0.63597,-0.632272 1.27224,-1.264218 1.9082,-1.896485 2.7674,3.583525 5.53561,7.166423 8.30273,10.75 a 1.3230452,1.3230452 0 0 0 1.04688,0.513672 h 6.74219 a 1.3230452,1.3230452 0 0 0 1.0332,-2.146484 C 536.4513,85.25959 532.63473,80.47655 528.81836,75.693359 532.29565,71.933552 535.7725,68.173316 539.25,64.414062 a 1.3230452,1.3230452 0 0 0 -0.9707,-2.220703 h -6.54883 a 1.3230452,1.3230452 0 0 0 -0.96094,0.414063 c -3.17744,3.36049 -6.3566,6.720076 -9.53515,10.080078 V 52.451172 a 1.3230452,1.3230452 0 0 0 -1.32227,-1.322266 z m -284.66016,0.02539 a 1.3230452,1.3230452 0 0 0 -1.32227,1.322265 v 0.529297 37.861329 a 1.3230452,1.3230452 0 0 0 1.32227,1.322265 h 5.72266 a 1.3230452,1.3230452 0 0 0 1.32226,-1.318359 c 0.0154,-6.558182 -0.0294,-13.106932 0.0234,-19.642578 0.0689,-0.602351 0.37475,-1.037578 0.94141,-1.431641 0.56974,-0.396212 1.38805,-0.66733 2.11914,-0.740234 1.83776,-0.153194 3.62256,-0.115566 4.83984,0.675781 0.28204,0.190038 0.36856,0.374292 0.44141,0.867187 0.0732,0.495108 0.0332,1.197944 0.0371,1.951172 v 18.316407 a 1.3230452,1.3230452 0 0 0 1.32226,1.322265 h 5.7207 a 1.3230452,1.3230452 0 0 0 1.32227,-1.326172 c -0.019,-6.801259 0.0383,-13.617714 -0.0273,-20.443359 a 1.3230452,1.3230452 0 0 0 0,-0.04297 c -0.14214,-3.30094 -2.12434,-6.505241 -5.35547,-7.734375 -2.91847,-1.150805 -6.10381,-1.156473 -9.01367,-0.570312 a 1.3230452,1.3230452 0 0 0 -0.0312,0.0059 c -0.79321,0.180096 -1.58277,0.442693 -2.33985,0.794922 V 52.476562 a 1.3230452,1.3230452 0 0 0 -1.32226,-1.322265 z m -67.76563,1.462891 a 1.3230452,1.3230452 0 0 0 -1.32226,1.322265 c 2e-5,0.176282 10e-6,0.352865 0,0.529297 2e-5,12.13281 0,24.265623 0,36.398438 a 1.3230452,1.3230452 0 0 0 1.32226,1.322265 h 6.06836 a 1.3230452,1.3230452 0 0 0 1.32227,-1.322265 V 79.058594 c 2.92618,-0.0042 5.87774,0.07217 8.88281,-0.05273 a 1.3230452,1.3230452 0 0 0 0.0293,-0.002 c 3.43452,-0.21894 7.04286,-1.885225 8.76172,-5.230468 a 1.3230452,1.3230452 0 0 0 0.002,-0.0039 c 1.68004,-3.283854 1.7611,-6.961118 1.51563,-10.285156 a 1.3230452,1.3230452 0 0 0 0,-0.01367 c -0.28004,-3.345297 -1.57963,-7.065842 -4.81641,-9.083984 -2.84734,-1.857061 -6.16644,-1.829572 -8.99805,-1.769531 z m 32.64258,0 a 1.3230452,1.3230452 0 0 0 -1.32226,1.322265 v 0.529297 5.367188 a 1.3230452,1.3230452 0 0 0 1.32226,1.322265 h 5.72266 a 1.3230452,1.3230452 0 0 0 1.32226,-1.322265 v -5.896485 a 1.3230452,1.3230452 0 0 0 -1.32226,-1.322265 z m 79.07813,0 a 1.3230452,1.3230452 0 0 0 -1.32227,1.322265 v 0.529297 36.398438 a 1.3230452,1.3230452 0 0 0 1.32227,1.322265 h 6.04297 a 1.3230452,1.3230452 0 0 0 1.32226,-1.322265 V 75.71875 h 13.16406 a 1.3230452,1.3230452 0 0 0 1.32227,-1.322266 v -4.779296 a 1.3230452,1.3230452 0 0 0 -1.32227,-1.322266 h -13.16406 v -8.253906 h 14.05664 a 1.3230452,1.3230452 0 0 0 1.32227,-1.322266 v -4.779297 a 1.3230452,1.3230452 0 0 0 -1.32227,-1.322265 z m -62.25,1.439453 a 1.3230452,1.3230452 0 0 0 -1.32031,1.232421 c -0.0111,0.164544 -0.0221,0.328605 -0.0332,0.492188 -0.14962,2.137375 -0.29959,4.27473 -0.44922,6.412109 h -3.36718 a 1.3230452,1.3230452 0 0 0 -1.32227,1.322266 v 4.580078 a 1.3230452,1.3230452 0 0 0 1.32227,1.322266 h 3.07031 c 0.007,4.743981 -0.0364,9.498989 0.0273,14.271484 a 1.3230452,1.3230452 0 0 0 0,0.02734 c 0.0898,2.67217 1.22298,5.665577 3.95899,7.074219 3.06052,1.614074 6.44012,1.600944 9.41992,1.595703 a 1.3230452,1.3230452 0 0 0 1.31055,-1.15625 c 0.20913,-1.65739 0.42118,-3.316872 0.6289,-4.978516 a 1.3230452,1.3230452 0 0 0 -1.2832,-1.486328 c -2.02928,-0.0448 -3.85812,0.02143 -5.23438,-0.623047 -0.23916,-0.217219 -0.36797,-0.45784 -0.42773,-0.990234 -0.0639,-0.569592 -0.01,-1.333585 -0.0352,-2.148438 v -0.04687 -11.539062 h 5.27539 a 1.3230452,1.3230452 0 0 0 1.32227,-1.322266 v -4.580078 a 1.3230452,1.3230452 0 0 0 -1.32227,-1.322266 h -5.27539 v -6.814453 a 1.3230452,1.3230452 0 0 0 -1.32226,-1.322265 z m -34.39649,6.058593 c 0.95774,-0.05899 1.94359,0.494983 2.24805,1.314454 0.75511,2.02833 0.71474,4.414536 0.54688,6.841796 a 1.3230452,1.3230452 0 0 0 0,0.0059 c -0.0478,0.727283 -0.24813,1.518108 -0.57227,2.089844 -0.32142,0.566938 -0.69641,0.895552 -1.25,1.039062 -1.41591,0.300437 -3.11651,0.07549 -5.03711,0.162109 h -3.61914 V 60.117188 h 7.60156 a 1.3230452,1.3230452 0 0 0 0.082,-0.002 z m 229.13672,1.589844 c -3.30781,0.07478 -7.16653,0.830896 -9.64062,3.785156 -1.9022,2.187015 -2.31236,5.054377 -2.18164,7.585938 l -0.002,-0.05078 c 0.042,3.154369 -0.0925,6.37828 0.0684,9.65625 a 1.3230452,1.3230452 0 0 0 0.002,0.02344 c 0.21121,3.15846 1.60066,6.598114 4.71679,8.306641 8.4e-4,4.57e-4 0.001,0.0015 0.002,0.002 3.52301,1.956386 7.51601,1.815077 11.0039,1.617187 2.61415,-0.132715 5.81625,-0.873627 7.54492,-3.59375 a 1.3230452,1.3230452 0 0 0 0.006,-0.01172 c 1.23244,-1.985548 1.42187,-4.18349 1.65821,-6.046875 a 1.3230452,1.3230452 0 0 0 -1.3125,-1.488282 h -5.19532 a 1.3230452,1.3230452 0 0 0 -1.31445,1.177735 c -0.13396,1.217289 -0.27731,2.050573 -0.67578,2.449219 -0.8788,0.38127 -2.15357,0.253662 -3.78711,0.341796 -0.001,-3.8e-5 -0.002,3.9e-5 -0.004,0 -1.54842,-0.04239 -2.89247,-0.163104 -3.61523,-0.818359 -0.8096,-1.124246 -0.67831,-2.924887 -0.73047,-5.003906 l -0.0371,0.345703 c 0.0411,-0.167881 0.01,-0.224646 0.0156,-0.345703 h 0.0215 15.29688 a 1.3230452,1.3230452 0 0 0 1.32226,-1.34375 c -0.0424,-2.598599 0.0911,-5.282498 -0.0703,-8.029297 a 1.3230452,1.3230452 0 0 0 -0.002,-0.02539 c -0.2484,-3.185602 -2.31399,-6.000342 -5.22852,-7.251953 -2.55802,-1.151565 -5.31157,-1.32391 -7.85351,-1.28125 a 1.3230452,1.3230452 0 0 0 -0.008,0 z m 69.01563,0 c -3.21446,0.08959 -7.02755,0.68429 -9.57031,3.513672 -2.05158,2.178671 -2.54947,5.152726 -2.40821,7.783203 l -0.002,-0.05859 c 0.0288,3.50314 -0.0592,7.046367 0.043,10.623047 a 1.3230452,1.3230452 0 0 0 0.002,0.04297 c 0.20619,3.363061 2.27574,6.501217 5.44336,7.839844 3.32981,1.431211 6.94789,1.442701 10.25781,1.109375 a 1.3230452,1.3230452 0 0 0 0.0137,-0.002 c 2.95996,-0.328083 6.19587,-1.514027 8.06641,-4.326172 1.59992,-2.248607 1.7488,-4.940448 1.6543,-7.257813 -0.029,-3.319816 0.0616,-6.684184 -0.0449,-10.083984 a 1.3230452,1.3230452 0 0 0 -0.002,-0.04297 c -0.21994,-3.472568 -2.44814,-6.618753 -5.68359,-7.939453 -2.53703,-1.075702 -5.2393,-1.246328 -7.75586,-1.201172 a 1.3230452,1.3230452 0 0 0 -0.0137,0 z m -112.33399,0.0039 c -1.819,0.06153 -3.65721,0.599582 -5.38086,1.449219 a 1.3230452,1.3230452 0 0 0 -1.27343,-0.964844 h -5.72266 a 1.3230452,1.3230452 0 0 0 -1.32227,1.322266 v 27.351563 a 1.3230452,1.3230452 0 0 0 1.32227,1.322265 h 5.72266 a 1.3230452,1.3230452 0 0 0 1.32226,-1.320312 c 0.0143,-6.549812 -0.0277,-13.090179 0.0215,-19.619141 0.0416,-0.581566 0.32233,-1.03526 0.83203,-1.435547 0.51104,-0.401339 1.24875,-0.681029 1.91797,-0.744141 a 1.3230452,1.3230452 0 0 0 0.0117,0 c 1.75308,-0.180862 3.47725,-0.131912 4.65624,0.621094 0.29945,0.198405 0.39653,0.397664 0.47461,0.90625 0.0786,0.511618 0.0392,1.233219 0.041,1.998047 v 18.271485 a 1.3230452,1.3230452 0 0 0 1.32227,1.322265 h 5.7207 a 1.3230452,1.3230452 0 0 0 1.32226,-1.320312 c 0.0143,-6.551117 -0.0277,-13.09279 0.0215,-19.623047 0.0368,-0.531691 0.2838,-0.96441 0.73047,-1.347656 0.44794,-0.384338 1.09591,-0.665746 1.70508,-0.748047 a 1.3230452,1.3230452 0 0 0 0.0137,-0.002 c 1.75585,-0.257899 3.48829,-0.304535 4.72851,0.375 0.28478,0.158417 0.40571,0.345575 0.51563,0.767578 0.10992,0.422002 0.12669,1.028265 0.0937,1.623046 a 1.3230452,1.3230452 0 0 0 -0.002,0.07227 v 18.88086 a 1.3230452,1.3230452 0 0 0 1.32227,1.322265 h 5.72266 a 1.3230452,1.3230452 0 0 0 1.32226,-1.326172 c -0.0208,-6.811956 0.0417,-13.639393 -0.0312,-20.478515 a 1.3230452,1.3230452 0 0 0 0,-0.05078 c -0.14702,-2.989522 -1.68861,-6.082937 -4.64453,-7.457031 -2.9346,-1.40188 -6.21209,-1.381127 -9.14062,-0.869141 a 1.3230452,1.3230452 0 0 0 -0.0254,0.0039 c -1.84324,0.359592 -3.55006,1.25073 -5.04102,2.449219 -2.24079,-2.211363 -5.45605,-2.882206 -8.27734,-2.751954 z m -32.2539,0.01563 c -1.9774,0.04001 -4.1906,0.402366 -6.15039,1.365235 -1.95428,0.960156 -3.68154,2.619168 -4.28907,5.037109 -0.48469,1.665387 -0.36673,3.246765 -0.375,4.599609 a 1.3230452,1.3230452 0 0 0 1.32227,1.330079 h 5.54883 a 1.3230452,1.3230452 0 0 0 1.32031,-1.244141 c 0.0497,-0.842152 -0.0268,-1.595099 0.0117,-2.166016 0.0355,-0.526857 0.14352,-0.780434 0.3457,-1.005859 0.8674,-0.556791 2.02346,-0.605553 3.53125,-0.666016 0.69075,0.027 1.37255,0.04441 1.85547,0.158203 0.49512,0.116673 0.69803,0.238586 0.85938,0.525391 a 1.3230452,1.3230452 0 0 0 0.0527,0.08789 c 0.23758,0.354907 0.2074,1.090933 0.0996,1.953125 -0.19443,0.45416 -0.67977,0.802903 -1.48828,1.070312 a 1.3230452,1.3230452 0 0 0 -0.0332,0.01172 c -2.71265,0.978895 -5.7513,1.604859 -8.69726,2.992188 -4.6e-4,2.11e-4 -0.001,-2.12e-4 -0.002,0 -2.00287,0.923889 -4.696,2.280514 -5.45703,5.191406 -1.03764,3.766304 0.43181,8.033323 3.81054,10.166015 a 1.3230452,1.3230452 0 0 0 0.004,0.002 c 2.97015,1.860656 6.59362,1.9185 9.71094,1.142579 a 1.3230452,1.3230452 0 0 0 0.0234,-0.0059 c 1.64371,-0.443589 2.9829,-1.422107 4.14844,-2.554687 0.92803,1.230843 2.12668,2.257295 3.77148,2.484375 1.27793,0.247383 2.45973,0.178957 3.48438,0.1875 a 1.3230452,1.3230452 0 0 0 1.32031,-1.123047 c 0.23346,-1.537737 0.47073,-3.077901 0.70313,-4.621094 a 1.3230452,1.3230452 0 0 0 -1.19727,-1.515625 c -0.57315,-0.04816 -1.0314,-0.01168 -1.32617,-0.03711 -0.0897,-0.0077 -0.0545,-0.0147 -0.10156,-0.02344 -0.24816,-1.056207 -0.10231,-2.406832 -0.19922,-4.0625 l 0.002,0.06445 c -0.0358,-3.257399 0.0747,-6.571388 -0.0547,-9.927734 a 1.3230452,1.3230452 0 0 0 -0.002,-0.02734 c -0.18873,-3.177368 -1.68519,-6.641015 -4.91797,-8.173828 -2.48719,-1.220066 -5.19306,-1.304197 -7.6289,-1.214844 z m -14.07813,0.0918 -0.55273,0.0039 c -2.44421,0.0084 -4.97137,0.592737 -7.26367,1.78125 v -0.08594 a 1.3230452,1.3230452 0 0 0 -1.32227,-1.322266 h -5.72266 a 1.3230452,1.3230452 0 0 0 -1.32226,1.322266 v 27.351563 a 1.3230452,1.3230452 0 0 0 1.32226,1.322265 c 1.90756,-4e-6 3.81511,0 5.72266,0 a 1.3230452,1.3230452 0 0 0 1.32227,-1.318359 c 0.0155,-6.28959 -0.0272,-12.572787 0.0234,-18.837891 0.10658,-0.284109 0.29,-0.522257 0.70118,-0.792969 0.43239,-0.284685 1.04341,-0.550156 1.66992,-0.845703 1.60025,-0.658952 3.39914,-0.899078 5.23632,-0.890625 a 1.3230452,1.3230452 0 0 0 1.32813,-1.271484 c 0.0645,-1.681212 0.12842,-3.362281 0.18945,-5.044922 a 1.3230452,1.3230452 0 0 0 -1.33203,-1.371094 z m 192.98047,0 -0.55273,0.0039 c -2.44421,0.0084 -4.97138,0.592734 -7.26368,1.78125 v -0.08594 a 1.3230452,1.3230452 0 0 0 -1.32226,-1.322266 h -5.72266 a 1.3230452,1.3230452 0 0 0 -1.32226,1.322266 v 27.351563 a 1.3230452,1.3230452 0 0 0 1.32226,1.322265 h 5.72266 a 1.3230452,1.3230452 0 0 0 1.32226,-1.318359 c 0.0154,-6.289576 -0.0273,-12.572801 0.0234,-18.837891 0.10658,-0.284117 0.29,-0.522257 0.70117,-0.792969 0.4324,-0.284685 1.04342,-0.550157 1.66993,-0.845703 1.60025,-0.658951 3.39913,-0.899078 5.23632,-0.890625 a 1.3230452,1.3230452 0 0 0 1.32813,-1.271484 c 0.0645,-1.681217 0.12841,-3.362292 0.18945,-5.044922 a 1.3230452,1.3230452 0 0 0 -1.33203,-1.371094 z M 194.4082,62.193359 a 1.3230452,1.3230452 0 0 0 -1.32226,1.322266 v 0.529297 26.822266 a 1.3230452,1.3230452 0 0 0 1.32226,1.322265 h 5.72266 a 1.3230452,1.3230452 0 0 0 1.32226,-1.322265 V 63.515625 a 1.3230452,1.3230452 0 0 0 -1.32226,-1.322266 z m 227.28516,0 a 1.3230452,1.3230452 0 0 0 -1.27148,1.689453 c 0.0651,0.225294 0.13022,0.450555 0.19531,0.675782 2.55823,8.891579 5.11889,17.782383 7.67578,26.673828 a 1.3230452,1.3230452 0 0 0 1.27148,0.957031 h 5.19922 a 1.3230452,1.3230452 0 0 0 1.25977,-0.917969 c 1.6912,-5.276703 3.38383,-10.553397 5.07617,-15.830078 1.69234,5.276676 3.38494,10.553367 5.07617,15.830078 a 1.3230452,1.3230452 0 0 0 1.25977,0.917969 h 5.12304 a 1.3230452,1.3230452 0 0 0 1.26953,-0.951172 c 2.66694,-9.117335 5.3316,-18.235277 8,-27.351562 a 1.3230452,1.3230452 0 0 0 -1.26953,-1.69336 h -5.42773 a 1.3230452,1.3230452 0 0 0 -1.27734,0.97461 c -1.36172,4.99859 -2.72401,9.997475 -4.0879,14.996093 -1.60405,-5.016988 -3.20886,-10.033787 -4.8125,-15.050781 a 1.3230452,1.3230452 0 0 0 -1.25976,-0.919922 h -5.26563 a 1.3230452,1.3230452 0 0 0 -1.26562,0.933594 c -1.53271,4.998122 -3.06549,9.996009 -4.59766,14.994141 -1.40877,-4.98823 -2.81644,-9.97662 -4.22656,-14.964844 a 1.3230452,1.3230452 0 0 0 -1.27344,-0.962891 z m -114.18555,1.824219 c -0.0644,0.02519 -0.0458,0.0417 -0.0976,0.06641 -0.0512,0.03361 -0.11325,0.03776 -0.16407,0.07227 z m 192.98047,0 c -0.0644,0.02519 -0.0458,0.0417 -0.0977,0.06641 -0.0512,0.03361 -0.11325,0.03776 -0.16406,0.07227 z m -24.74414,4.955078 c 3.94752,0.532874 2.22774,-0.453522 4.07617,1.298828 0.44781,0.881857 0.19624,2.272505 0.30664,4.074219 -0.0351,3.105406 0.0655,6.164032 -0.0527,9.160156 -0.0391,0.448409 -0.24388,0.790149 -0.64258,1.113282 -0.40088,0.324899 -0.99567,0.569833 -1.55078,0.648437 a 1.3230452,1.3230452 0 0 0 -0.0137,0.002 c -1.97023,0.301388 -3.97586,0.303929 -5.54102,-0.455078 a 1.3230452,1.3230452 0 0 0 -0.002,-0.002 c -0.69781,-0.337736 -1.04002,-1.293345 -0.95117,-2.300781 a 1.3230452,1.3230452 0 0 0 0.004,-0.107422 c 0.026,-3.82929 -0.0504,-7.63295 0.0391,-11.396485 0.0253,-0.455102 0.2265,-0.815081 0.61132,-1.15039 0.38611,-0.336433 0.95977,-0.592294 1.50196,-0.673828 a 1.3230452,1.3230452 0 0 0 0.0781,-0.01563 c 0.65905,-0.140648 1.38042,-0.187817 2.13672,-0.195313 z m -68.9668,0.002 c 1.56597,0.05163 2.95596,0.175279 3.78321,0.822266 0.23043,0.283534 0.34224,0.612398 0.36718,1.207031 0.0201,0.478744 -0.007,1.132777 -0.004,1.78125 h -8.38672 c -0.007,-1.165983 -0.0165,-2.150603 0.36328,-2.74414 0.71348,-0.805443 2.24535,-1.014108 3.87695,-1.066407 z m -72.13086,10.375 v 3.660157 c -0.46994,1.070936 -1.78951,1.854328 -3.23632,2.25 -0.85207,0.175343 -1.74953,0.297009 -2.50586,0.236328 -0.74688,-0.05992 -1.30133,-0.275587 -1.75977,-0.707032 -0.5902,-0.725257 -0.37176,-2.332331 0.48438,-2.726562 a 1.3230452,1.3230452 0 0 0 0.0976,-0.04883 c 1.89762,-1.070971 4.45283,-1.450116 6.91992,-2.664063 z"
         inkscape:original="M 514.19141 52.451172 L 514.19141 52.980469 L 514.19141 90.867188 L 519.91211 90.867188 L 519.91211 82.271484 C 521.03257 81.157554 522.15299 80.043621 523.27344 78.929688 C 526.34632 82.908884 529.41948 86.887855 532.49219 90.867188 L 539.23438 90.867188 C 535.18181 85.787634 531.12887 80.708354 527.07617 75.628906 C 530.8106 71.591202 534.54452 67.553004 538.2793 63.515625 L 531.73047 63.515625 C 527.79186 67.681134 523.85144 71.844919 519.91211 76.009766 L 519.91211 52.451172 L 514.19141 52.451172 z M 229.53125 52.476562 L 229.53125 53.005859 L 229.53125 90.867188 L 235.25391 90.867188 C 235.26941 84.278189 235.22284 77.687619 235.27734 71.099609 C 235.49963 69.025849 237.65947 67.922825 239.53711 67.738281 C 241.44741 67.578192 243.57089 67.54043 245.23438 68.628906 C 246.53028 69.496791 246.29372 71.197406 246.30078 72.542969 L 246.30078 90.867188 L 252.02148 90.867188 C 252.00248 84.056067 252.05964 77.243352 251.99414 70.433594 C 251.87352 67.632391 250.15634 64.887856 247.48633 63.875 C 244.87432 62.842144 241.93541 62.819931 239.20898 63.369141 C 237.77299 63.695179 236.38089 64.303206 235.25391 65.263672 L 235.25391 52.476562 L 229.53125 52.476562 z M 161.76562 53.939453 C 161.76564 54.115885 161.76563 54.292318 161.76562 54.46875 C 161.76564 66.601563 161.76562 78.734375 161.76562 90.867188 L 167.83398 90.867188 L 167.83398 77.744141 C 171.21674 77.704941 174.60493 77.824064 177.98438 77.683594 C 181.04704 77.488359 184.20541 75.987794 185.6543 73.167969 C 187.15641 70.231902 187.26748 66.807355 187.0293 63.582031 C 186.77094 60.495708 185.56804 57.20779 182.82422 55.501953 C 180.37929 53.89995 177.34937 53.879505 174.5332 53.939453 L 161.76562 53.939453 z M 194.4082 53.939453 L 194.4082 54.46875 L 194.4082 59.835938 L 200.13086 59.835938 L 200.13086 53.939453 L 194.4082 53.939453 z M 273.48633 53.939453 L 273.48633 54.46875 L 273.48633 90.867188 L 279.5293 90.867188 L 279.5293 74.396484 L 294.01562 74.396484 L 294.01562 69.617188 L 279.5293 69.617188 L 279.5293 58.71875 L 294.9082 58.71875 L 294.9082 53.939453 L 273.48633 53.939453 z M 211.23633 55.378906 C 211.22523 55.542969 211.21422 55.707031 211.20312 55.871094 C 211.02474 58.419271 210.84635 60.967448 210.66797 63.515625 L 206.06641 63.515625 L 206.06641 68.095703 L 210.45703 68.095703 C 210.47723 73.287698 210.41703 78.481167 210.48633 83.671875 C 210.56463 86.002145 211.56019 88.504327 213.73242 89.619141 C 216.42517 91.041758 219.56879 91.069681 222.54102 91.064453 C 222.75034 89.40556 222.96251 87.747024 223.16992 86.087891 C 221.17018 86.043741 219.0178 86.226083 217.18945 85.275391 C 215.90637 84.270432 216.23055 82.434574 216.17969 81.003906 L 216.17969 68.095703 L 222.77734 68.095703 L 222.77734 63.515625 L 216.17969 63.515625 L 216.17969 55.378906 L 211.23633 55.378906 z M 167.83398 58.794922 L 176.75781 58.794922 C 178.25467 58.702732 179.79291 59.528224 180.32812 60.96875 C 181.2027 63.31798 181.12544 65.900006 180.95508 68.363281 C 180.83803 70.145687 180.03509 72.217965 178.125 72.699219 C 176.39266 73.075837 174.59575 72.811253 172.83594 72.890625 L 167.83398 72.890625 L 167.83398 58.794922 z M 406.00586 63.027344 C 402.87911 63.098034 399.44128 63.831378 397.3418 66.345703 C 395.75297 68.163676 395.35386 70.669216 395.47461 73.007812 C 395.51721 76.210069 395.38597 79.418539 395.54297 82.617188 C 395.73245 85.450639 396.9859 88.434502 399.57617 89.853516 C 402.69757 91.589984 406.4192 91.506958 409.87891 91.310547 C 412.29004 91.188138 414.99689 90.493554 416.37305 88.328125 C 417.39702 86.678426 417.60282 84.696701 417.8418 82.8125 L 412.64648 82.8125 C 412.51489 84.008271 412.46592 85.41821 411.4707 86.246094 C 410.04938 87.015595 408.38083 86.68513 406.83398 86.78125 C 405.26206 86.73833 403.41944 86.726247 402.23242 85.539062 C 400.94749 83.883171 401.24665 81.631124 401.19727 79.667969 C 401.31878 79.171383 400.84062 78.075907 401.69727 78.314453 L 417.81641 78.314453 C 417.77311 75.658051 417.90385 72.993539 417.74805 70.341797 C 417.53977 67.670661 415.76194 65.245103 413.30469 64.195312 C 411.02877 63.167867 408.47126 62.985969 406.00586 63.027344 z M 475.0293 63.027344 C 471.95265 63.113094 468.54718 63.707782 466.39453 66.113281 C 464.68109 67.923694 464.20444 70.519524 464.33398 72.931641 C 464.36298 76.463708 464.27615 79.999482 464.37695 83.529297 C 464.55253 86.393149 466.35391 89.108401 469.01758 90.232422 C 472.02626 91.527232 475.41587 91.565364 478.625 91.242188 C 481.34764 90.94041 484.18893 89.851675 485.75391 87.480469 C 487.0889 85.615416 487.26062 83.241276 487.16992 81.023438 C 487.13962 77.659391 487.2303 74.291262 487.125 70.929688 C 486.93799 67.977013 484.99574 65.240004 482.25 64.125 C 479.98085 63.16154 477.46714 62.9836 475.0293 63.027344 z M 362.70508 63.03125 C 360.31778 63.11174 357.84457 63.742204 356.00391 65.333984 L 356.00391 63.515625 L 350.28125 63.515625 L 350.28125 90.867188 L 356.00391 90.867188 C 356.01821 84.298991 355.97519 77.729493 356.02539 71.162109 C 356.16374 69.16708 358.13506 67.927205 359.97266 67.753906 C 361.81918 67.563405 363.87468 67.54175 365.49023 68.580078 C 366.82884 69.459616 366.6003 71.210687 366.60352 72.591797 L 366.60352 90.867188 L 372.32422 90.867188 C 372.33852 84.298991 372.2955 77.729493 372.3457 71.162109 C 372.46939 69.311647 374.20596 68.072202 375.92578 67.839844 C 377.76398 67.56985 379.80632 67.441896 381.48828 68.367188 C 382.77383 69.082309 382.84736 70.687024 382.77539 71.986328 L 382.77539 90.867188 L 388.49805 90.867188 C 388.47725 84.044483 388.5396 77.220087 388.4668 70.398438 C 388.34006 67.821399 386.99449 65.190831 384.58203 64.072266 C 382.00349 62.838094 379.00004 62.826692 376.23242 63.310547 C 374.19733 63.707568 372.25861 64.674888 370.81641 66.177734 C 368.99827 63.609793 365.67487 62.891093 362.70508 63.03125 z M 330.43555 63.046875 C 326.77642 63.119795 322.23168 64.449516 321.23828 68.46875 C 320.82874 69.852902 320.92082 71.309695 320.91211 72.734375 L 326.46094 72.734375 C 326.54184 71.364575 326.15049 69.676733 327.24414 68.609375 C 328.55606 67.671991 330.13064 67.711247 331.67578 67.648438 C 333.02353 67.701967 334.78032 67.664518 335.53711 69.009766 C 336.14102 69.911918 336.0032 71.069715 335.85547 72.083984 C 335.48424 73.146525 334.47002 73.692937 333.46484 74.025391 C 330.63081 75.048084 327.63584 75.671864 324.87305 76.974609 C 322.92663 77.87241 320.71825 79.065189 320.13672 81.306641 C 319.25152 84.502956 320.54101 88.221641 323.37695 90.011719 C 325.9372 91.615589 329.20091 91.704943 332.06445 90.992188 C 333.94119 90.485711 335.547 89.244354 336.72266 87.720703 C 337.37001 89.332013 338.77663 90.672042 340.54297 90.900391 C 341.62287 91.116103 342.72995 91.05533 343.82422 91.064453 C 344.05799 89.524649 344.29541 87.985396 344.52734 86.445312 C 343.69744 86.375573 342.64971 86.58843 342.01953 85.925781 C 341.44926 84.383663 341.78552 82.689849 341.69141 81.082031 C 341.65521 77.785904 341.76372 74.484743 341.63672 71.191406 C 341.46937 68.374023 340.12907 65.390063 337.4668 64.130859 C 335.29791 63.063569 332.80779 62.958764 330.43555 63.046875 z M 316.33594 63.138672 L 315.7832 63.142578 C 313.07654 63.151178 310.25839 63.709539 307.99023 65.25 C 307.6557 65.380789 307.05752 66.34752 307.1875 65.554688 L 307.1875 63.515625 L 301.46484 63.515625 L 301.46484 90.867188 C 303.3724 90.867184 305.27995 90.867188 307.1875 90.867188 C 307.2032 84.482598 307.15604 78.092812 307.21094 71.710938 C 307.63609 70.317917 309.18137 69.74608 310.38477 69.175781 C 312.20585 68.422791 314.18758 68.172628 316.14648 68.181641 C 316.21098 66.500702 316.27496 64.81974 316.33594 63.138672 z M 509.31641 63.138672 L 508.76367 63.142578 C 506.05701 63.151178 503.23884 63.709539 500.9707 65.25 C 500.63616 65.380789 500.03801 66.34752 500.16797 65.554688 L 500.16797 63.515625 L 494.44531 63.515625 L 494.44531 90.867188 L 500.16797 90.867188 C 500.18357 84.482598 500.13641 78.092812 500.19141 71.710938 C 500.61657 70.317917 502.16183 69.74608 503.36523 69.175781 C 505.18631 68.422791 507.16805 68.172628 509.12695 68.181641 C 509.19145 66.500702 509.25542 64.81974 509.31641 63.138672 z M 194.4082 63.515625 L 194.4082 64.044922 L 194.4082 90.867188 L 200.13086 90.867188 L 200.13086 63.515625 L 194.4082 63.515625 z M 421.69336 63.515625 C 421.75846 63.740885 421.82357 63.966146 421.88867 64.191406 C 424.44702 73.083403 427.0073 81.974843 429.56445 90.867188 L 434.76367 90.867188 C 436.87459 84.280918 438.98781 77.695367 441.09961 71.109375 C 443.21144 77.695368 445.3246 84.280918 447.43555 90.867188 L 452.55859 90.867188 C 455.22546 81.750062 457.89008 72.632272 460.55859 63.515625 L 455.13086 63.515625 C 453.37771 69.951078 451.62011 76.385326 449.86523 82.820312 C 447.80802 76.3854 445.75025 69.950642 443.69336 63.515625 L 438.42773 63.515625 C 436.45587 69.945809 434.48511 76.37633 432.51367 82.806641 C 430.69707 76.376365 428.88214 69.945595 427.06445 63.515625 L 421.69336 63.515625 z M 406.77344 67.648438 C 408.38802 67.700428 410.22853 67.725388 411.51758 68.832031 C 412.60511 70.034644 412.13838 71.795841 412.24414 73.263672 C 412.47873 74.112582 411.97566 74.224619 411.24414 74.107422 L 401.19727 74.107422 C 401.31307 72.490224 400.83644 70.652738 401.82422 69.228516 C 402.99379 67.812536 405.073 67.700484 406.77344 67.648438 z M 475.75195 67.648438 C 477.60488 67.683458 479.87482 67.865089 480.97266 69.583984 C 481.76861 71.044793 481.33738 72.774799 481.44922 74.361328 C 481.41442 77.443634 481.52048 80.531461 481.39648 83.609375 C 481.25578 85.306634 479.62652 86.357213 478.06641 86.578125 C 475.9744 86.898141 473.69453 86.947831 471.74805 86.003906 C 470.40796 85.355306 469.93192 83.786682 470.05469 82.394531 C 470.08059 78.577566 470.00205 74.755679 470.09375 70.941406 C 470.18355 69.241902 471.76226 68.111063 473.33203 67.875 C 474.1261 67.705537 474.94166 67.655651 475.75195 67.648438 z M 335.94531 77.119141 C 336.07542 77.249852 335.89049 77.986769 335.96875 78.226562 L 335.96875 83.376953 C 335.31012 85.138083 333.43891 86.088871 331.72266 86.550781 C 329.87804 86.935374 327.62407 87.150203 326.16211 85.708984 C 324.91323 84.293209 325.30039 81.679034 327.07617 80.861328 C 329.80645 79.320424 333.12752 79.124983 335.6875 77.230469 C 335.82212 77.098017 335.90194 77.07557 335.94531 77.119141 z "
         inkscape:radius="1.3229129"
         sodipodi:type="inkscape:offset"
         style="font-style:normal;font-variant:normal;font-weight:normal;font-stretch:normal;font-size:50.8px;line-height:1.25;font-family:Monda;-inkscape-font-specification:Monda;fill:#269142;fill-opacity:1;stroke:none;stroke-width:0.264583"
         id="path1506-1-8" />
      <path
         d="m 514.19141,52.980469 c 0,12.628906 0,25.257812 0,37.886719 1.9069,0 3.8138,-10e-7 5.7207,0 0,-2.865235 0,-5.730469 0,-8.595704 1.12044,-1.113932 2.24088,-2.227864 3.36133,-3.341796 3.07288,3.979194 6.14605,7.958167 9.21875,11.9375 2.24739,0 4.49479,-10e-7 6.74219,0 -4.05258,-5.079554 -8.1055,-10.158835 -12.15821,-15.238282 3.73444,-4.037704 7.46834,-8.075902 11.20313,-12.113281 -2.18295,0 -4.36589,0 -6.54883,0 -3.93861,4.165509 -7.87905,8.329294 -11.81836,12.494141 0,-7.852865 0,-15.70573 0,-23.558594 -1.9069,0 -3.8138,0 -5.7207,0 0,0.176432 0,0.352864 0,0.529297 z m -284.66016,0.02539 c 0,12.620443 0,25.240886 0,37.861329 1.90755,-10e-7 3.8151,0 5.72266,0 0.0155,-6.588998 -0.0311,-13.179569 0.0234,-19.767579 0.22229,-2.07376 2.38236,-3.177371 4.26,-3.361915 1.9103,-0.160089 4.03318,-0.196817 5.69667,0.891659 1.29591,0.867885 1.05971,2.568443 1.06677,3.914006 0,6.107943 0,12.215886 0,18.323829 1.9069,0 3.8138,-10e-7 5.7207,0 -0.019,-6.811121 0.0377,-13.624464 -0.0278,-20.434222 -0.12062,-2.801203 -1.83695,-5.544496 -4.50696,-6.557352 -2.61201,-1.032856 -5.55056,-1.05636 -8.27699,-0.50715 -1.43599,0.326038 -2.82882,0.934742 -3.9558,1.895208 0,-4.26237 0,-8.52474 0,-12.78711 -1.90756,0 -3.81511,0 -5.72266,0 0,0.176433 0,0.352865 0,0.529297 z m -67.76563,1.462891 c 10e-6,12.132812 0,24.265625 0,36.398438 2.02279,0 4.04558,-10e-7 6.06836,0 0,-4.374349 0,-8.748698 0,-13.123047 3.38276,-0.0392 6.77092,0.07952 10.15037,-0.06095 3.06267,-0.195235 6.22192,-1.694454 7.67081,-4.514279 1.50211,-2.936067 1.6132,-6.361356 1.37502,-9.58668 -0.25836,-3.086323 -1.46307,-6.374126 -4.20689,-8.079963 -2.44493,-1.602003 -5.47431,-1.622762 -8.29048,-1.562814 -4.25573,0 -8.51146,0 -12.76719,0 10e-6,0.176432 10e-6,0.352865 0,0.529297 z m 32.64258,0 c 0,1.789063 0,3.578125 0,5.367188 1.90756,-10e-7 3.81511,0 5.72266,0 0,-1.965495 0,-3.93099 0,-5.896485 -1.90755,0 -3.8151,0 -5.72266,0 0,0.176432 0,0.352865 0,0.529297 z m 79.07813,0 c 0,12.132812 0,24.265625 0,36.398438 2.01432,-10e-7 4.02864,0 6.04297,0 0,-5.490235 0,-10.980469 0,-16.470704 4.82877,0 9.65755,0 14.48632,0 0,-1.593099 0,-3.186198 0,-4.779296 -4.82877,-10e-7 -9.65755,-10e-7 -14.48632,0 0,-3.632813 0,-7.265625 0,-10.898438 5.1263,0 10.2526,0 15.3789,0 0,-1.593099 0,-3.186198 0,-4.779297 -7.14062,0 -14.28125,0 -21.42187,0 0,0.176432 0,0.352865 0,0.529297 z m -62.28321,1.402344 c -0.17838,2.548177 -0.35677,5.096354 -0.53515,7.644531 -1.53386,0 -3.06771,0 -4.60156,0 0,1.526693 0,3.053385 0,4.580078 1.46354,0 2.92708,0 4.39062,0 0.0202,5.191995 -0.04,10.386123 0.0293,15.57683 0.0783,2.33027 1.07396,4.831364 3.24619,5.946177 2.69275,1.422617 5.8363,1.45097 8.80853,1.445743 0.20932,-1.658893 0.42149,-3.317429 0.6289,-4.976562 -1.99974,-0.04415 -4.15212,0.138193 -5.98047,-0.8125 -1.28308,-1.004959 -0.9589,-2.840817 -1.00976,-4.271485 0,-4.302734 0,-8.605468 0,-12.908203 2.19922,0 4.39844,0 6.59765,0 0,-1.526693 0,-3.053385 0,-4.580078 -2.19921,0 -4.39843,0 -6.59765,0 0,-2.71224 0,-5.424479 0,-8.136719 -1.64779,0 -3.29558,0 -4.94336,0 -0.0111,0.164063 -0.0221,0.328125 -0.0332,0.492188 z m -34.44531,2.923828 c 1.49686,-0.09219 3.0351,0.733303 3.57031,2.173828 0.87457,2.34923 0.79755,4.930985 0.62719,7.39426 -0.11705,1.782406 -0.91932,3.85502 -2.82941,4.336274 -1.73234,0.376618 -3.52937,0.111969 -5.28918,0.191341 -1.66758,0 -3.33516,0 -5.00274,0 0,-4.698568 0,-9.397135 0,-14.095703 2.97461,0 5.94922,0 8.92383,0 z m 153.67774,4.251953 c -3.65913,0.07292 -8.20456,1.402013 -9.19796,5.421247 -0.40954,1.384152 -0.31677,2.841573 -0.32548,4.266253 1.84961,0 3.69922,0 5.54883,0 0.0809,-1.3698 -0.31045,-3.057642 0.7832,-4.125 1.31192,-0.937384 2.8865,-0.898127 4.43164,-0.960937 1.34775,0.05353 3.10454,0.01608 3.86133,1.361328 0.60391,0.902152 0.46609,2.059949 0.31836,3.074218 -0.37123,1.062541 -1.38555,1.608499 -2.39073,1.940953 -2.83403,1.022693 -5.82844,1.647628 -8.59123,2.950373 -1.94642,0.897801 -4.15516,2.090313 -4.73669,4.331765 -0.8852,3.196314 0.40387,6.914257 3.23981,8.704337 2.56025,1.603868 5.82428,1.693531 8.68782,0.980776 1.87674,-0.506477 3.48255,-1.747834 4.65821,-3.271485 0.64735,1.611311 2.05476,2.95171 3.8211,3.180061 1.0799,0.215711 2.18619,0.154565 3.28046,0.163689 0.23377,-1.539804 0.47119,-3.079057 0.70312,-4.619141 -0.8299,-0.06974 -1.87763,0.143118 -2.50781,-0.519531 -0.57027,-1.542119 -0.23401,-3.236322 -0.32812,-4.84414 -0.0362,-3.296127 0.0727,-6.596939 -0.0543,-9.890276 -0.16735,-2.817383 -1.50834,-5.801635 -4.17061,-7.060839 -2.16889,-1.06729 -4.65871,-1.171762 -7.03095,-1.083651 z m 32.26953,-0.01563 c -2.3873,0.08049 -4.86051,0.710954 -6.70117,2.302734 0,-0.606119 0,-1.212239 0,-1.818359 -1.90756,0 -3.81511,0 -5.72266,0 0,9.117187 0,18.234375 0,27.351563 1.90755,0 3.8151,0 5.72266,0 0.0143,-6.568197 -0.0287,-13.137695 0.0215,-19.705079 0.13835,-1.995029 2.11014,-3.235395 3.94774,-3.408694 1.84652,-0.190501 3.90115,-0.211785 5.5167,0.826543 1.33861,0.879538 1.11047,2.631119 1.11369,4.012229 0,6.091667 0,12.183334 0,18.275001 1.9069,0 3.8138,-10e-7 5.7207,0 0.0143,-6.568197 -0.0287,-13.137695 0.0215,-19.705079 0.12369,-1.850462 1.86077,-3.08974 3.58059,-3.322098 1.8382,-0.269994 3.87942,-0.397592 5.56138,0.527699 1.28555,0.715122 1.35969,2.319314 1.28772,3.618618 0,6.29362 0,12.58724 0,18.88086 1.90755,-10e-7 3.8151,0 5.72266,0 -0.0208,-6.822706 0.0416,-13.647101 -0.0312,-20.46875 -0.12674,-2.577038 -1.47143,-5.207176 -3.88389,-6.325741 -2.57854,-1.234172 -5.58287,-1.246005 -8.35049,-0.76215 -2.03509,0.397021 -3.97381,1.364341 -5.41601,2.867187 -1.81814,-2.567941 -5.14154,-3.286641 -8.11133,-3.146484 z m 43.30078,-0.0039 c -3.12675,0.07069 -6.56458,0.804034 -8.66406,3.318359 -1.58883,1.817973 -1.98794,4.323904 -1.86719,6.6625 0.0426,3.202256 -0.0877,6.410348 0.0693,9.608998 0.18948,2.833452 1.4418,5.816918 4.03207,7.235933 3.1214,1.736467 6.84326,1.653319 10.30297,1.456908 2.41113,-0.122408 5.11772,-0.815642 6.49388,-2.981073 1.02397,-1.649698 1.22998,-3.632268 1.46896,-5.516469 -1.73177,0 -3.46354,0 -5.19532,0 -0.13159,1.19577 -0.18056,2.605709 -1.17578,3.433594 -1.42132,0.769501 -3.08945,0.438375 -4.6363,0.534493 -1.57192,-0.04292 -3.41496,-0.05434 -4.60198,-1.241525 -1.28493,-1.655891 -0.98577,-3.907158 -1.03515,-5.870312 0.12151,-0.496585 -0.35665,-1.592843 0.5,-1.354297 5.37304,0 10.74609,0 16.11914,0 -0.0433,-2.656402 0.0882,-5.320408 -0.0676,-7.97215 -0.20828,-2.671136 -1.98654,-5.096642 -4.44379,-6.146432 -2.27592,-1.027446 -4.83377,-1.209902 -7.29917,-1.168527 z m 69.02344,0 c -3.07667,0.08575 -6.48181,0.681244 -8.63448,3.086743 -1.71343,1.810413 -2.19038,4.405437 -2.06084,6.817554 0.029,3.532067 -0.0578,7.067841 0.043,10.597656 0.17559,2.863852 1.97783,5.579901 4.6415,6.70392 3.00869,1.29481 6.39642,1.33293 9.60556,1.009754 2.72263,-0.301779 5.56527,-1.390837 7.13025,-3.762045 1.33498,-1.865052 1.50635,-4.23965 1.41566,-6.457488 -0.0303,-3.364049 0.0604,-6.732176 -0.0449,-10.09375 -0.18703,-2.952674 -2.12927,-5.689684 -4.875,-6.804688 -2.26917,-0.96346 -4.78287,-1.1414 -7.2207,-1.097656 z m -159.2461,0.115234 c -2.70666,0.0086 -5.52481,0.566961 -7.79297,2.107422 -0.33453,0.130789 -0.93271,1.09791 -0.80273,0.305078 0,-0.679818 0,-1.359635 0,-2.039453 -1.90755,0 -3.8151,0 -5.72266,0 0,9.117187 0,18.234375 0,27.351563 1.90756,-10e-7 3.81511,0 5.72266,0 0.0157,-6.384587 -0.0314,-12.773534 0.0235,-19.155408 0.42515,-1.39302 1.9704,-1.9657 3.1738,-2.535999 1.82108,-0.75299 3.80281,-1.003153 5.76171,-0.99414 0.0645,-1.680939 0.12848,-3.361901 0.18946,-5.042969 -0.18425,0.0013 -0.36849,0.0026 -0.55274,0.0039 z m 192.98047,0 c -2.70666,0.0086 -5.52481,0.566961 -7.79297,2.107422 -0.33453,0.130789 -0.93271,1.09791 -0.80273,0.305078 0,-0.679818 0,-1.359635 0,-2.039453 -1.90755,0 -3.81511,0 -5.72266,0 0,9.117187 0,18.234375 0,27.351563 1.90755,0 3.81511,0 5.72266,0 0.0157,-6.384587 -0.0314,-12.773534 0.0235,-19.155408 0.42515,-1.39302 1.9704,-1.9657 3.17379,-2.535999 1.82109,-0.75299 3.80282,-1.003153 5.76172,-0.99414 0.0645,-1.680939 0.12848,-3.361901 0.18946,-5.042969 -0.18425,0.0013 -0.36849,0.0026 -0.55274,0.0039 z M 194.4082,64.044922 c 0,8.940755 0,17.88151 0,26.822266 1.90756,-10e-7 3.81511,0 5.72266,0 0,-9.117188 0,-18.234375 0,-27.351563 -1.90755,0 -3.8151,0 -5.72266,0 0,0.176432 0,0.352865 0,0.529297 z m 227.48047,0.146484 c 2.55835,8.891997 5.11864,17.783437 7.67578,26.675782 1.73308,0 3.46615,-10e-7 5.19922,0 2.11094,-6.58627 4.22413,-13.171821 6.33594,-19.757813 2.11181,6.585993 4.225,13.171543 6.33594,19.757813 1.70768,0 3.41536,-10e-7 5.12304,0 2.66687,-9.117128 5.33149,-18.234916 8,-27.351563 -1.80924,0 -3.61849,0 -5.42773,0 -1.75316,6.435453 -3.51076,12.869699 -5.26563,19.304687 -2.05722,-6.434915 -4.11496,-12.86967 -6.17187,-19.304687 -1.75521,0 -3.51042,0 -5.26563,0 -1.97185,6.430184 -3.94262,12.860703 -5.91406,19.291016 -1.81662,-6.430278 -3.63151,-12.861046 -5.44922,-19.291016 -1.79036,0 -3.58073,0 -5.37109,0 0.0651,0.22526 0.13021,0.450521 0.19531,0.675781 z m -15.11523,3.457032 c 1.61458,0.05199 3.45509,0.07695 4.74414,1.183593 1.08753,1.202613 0.6208,2.964591 0.72656,4.432422 0.23459,0.84891 -0.26848,0.960166 -1,0.842969 -3.34896,0 -6.69792,0 -10.04687,0 0.1158,-1.617198 -0.36083,-3.454684 0.62695,-4.878906 1.16957,-1.41598 3.24878,-1.528031 4.94922,-1.580078 z m 68.97851,0 c 1.85293,0.03502 4.12261,0.216176 5.22044,1.935071 0.79594,1.460809 0.36499,3.190509 0.47683,4.777038 -0.0348,3.082306 0.0703,6.171636 -0.0537,9.249552 -0.1407,1.697258 -1.76839,2.746765 -3.3285,2.967677 -2.09201,0.320017 -4.3725,0.370053 -6.31899,-0.57387 -1.34009,-0.6486 -1.81611,-2.217225 -1.69336,-3.609375 0.026,-3.816967 -0.0522,-7.638246 0.0395,-11.452519 0.0898,-1.699504 1.66893,-2.83098 3.2387,-3.067043 0.79405,-0.169463 1.6088,-0.219317 2.41909,-0.226531 z m -139.7832,15.728515 c -0.65863,1.761129 -2.52908,2.711412 -4.24533,3.173323 -1.84462,0.384592 -4.10009,0.60004 -5.56205,-0.841181 -1.24888,-1.415773 -0.86142,-4.03013 0.91436,-4.847836 2.73028,-1.540903 6.05272,-1.735494 8.6127,-3.630008 0.53847,-0.529805 0.17598,0.676368 0.28032,0.996093 0,1.716536 0,3.433073 0,5.149609 z"
         style="font-style:normal;font-variant:normal;font-weight:normal;font-stretch:normal;font-size:50.8px;line-height:1.25;font-family:Monda;-inkscape-font-specification:Monda;fill:#cccccc;fill-opacity:1;stroke:none;stroke-width:0.264583"
         id="path1506-1" />
      <path
         id="path1506-13"
         style="font-style:normal;font-variant:normal;font-weight:normal;font-stretch:normal;font-size:50.8px;line-height:1.25;font-family:Monda;-inkscape-font-specification:Monda;opacity:0.5;fill:#000000;fill-opacity:1;stroke:none;stroke-width:0.264583;filter:url(#filter1736)"
         d="m 515.24903,53.510499 v 37.355859 h 4.66328 v -8.284766 l 3.94393,-3.91914 9.42578,12.203906 h 5.38263 L 526.90723,76.132374 537.59804,64.573389 h -5.10977 L 519.91231,77.868702 V 53.510499 Z m -284.6586,0.02479 v 37.331054 h 4.66328 V 72.064392 c 0,-1.322917 0.55397,-2.389519 1.66192,-3.199805 1.10794,-0.810287 2.63756,-1.21543 4.58886,-1.21543 3.90261,0 5.85391,1.265039 5.85391,3.795117 v 19.422071 h 4.66328 V 71.692321 c 0,-1.074869 -0.16537,-2.058789 -0.49609,-2.951758 -1.15756,-3.108854 -3.96875,-4.663281 -8.4336,-4.663281 -3.52226,0 -6.13502,0.992188 -7.83828,2.976563 V 53.535291 Z m -67.76641,1.463478 v 35.867578 h 5.01055 v -13.12168 h 9.25215 c 3.24115,0 5.72161,-0.8847 7.44141,-2.654102 1.73632,-1.769401 2.60449,-4.704622 2.60449,-8.805664 0,-7.524088 -3.32383,-11.286132 -9.97149,-11.286132 z m 32.64297,0 v 4.836914 h 4.66328 v -4.836914 z m 79.07735,0 v 35.867578 h 4.98573 V 74.396032 h 14.48594 V 70.675329 H 279.53007 V 58.71947 h 15.37891 v -3.720703 z m -62.28457,1.438672 -0.57051,8.135937 h -4.56406 v 3.522266 h 4.39043 v 15.254882 c 0,2.827735 0.81028,4.820378 2.43085,5.97793 1.63712,1.157552 4.29122,1.736328 7.96231,1.736328 h 0.69453 l 0.49609,-3.91914 h -0.52089 c -2.36472,0 -4.02663,-0.264584 -4.98575,-0.79375 -0.94257,-0.545704 -1.41386,-1.645378 -1.41386,-3.299024 V 68.095642 h 6.59804 v -3.522266 h -6.59804 v -8.135937 z m -44.4252,2.356445 h 9.47539 c 1.63712,0 2.84427,0.578776 3.62149,1.736328 0.79374,1.157552 1.19062,3.183268 1.19062,6.077148 0,0.859896 -0.0331,1.604037 -0.0992,2.232422 -0.29765,3.406511 -1.90996,5.109766 -4.83691,5.109766 h -9.35137 z m 164.38066,5.283398 c -3.40649,0 -5.96964,0.603581 -7.68946,1.810742 -1.70323,1.207162 -2.55487,3.092318 -2.55487,5.655469 v 1.190625 h 4.48964 v -1.16582 c 0,-0.959115 0.16539,-1.719792 0.49609,-2.282031 0.64492,-1.091407 2.38953,-1.63711 5.23381,-1.63711 2.01744,0 3.32382,0.355534 3.91914,1.066602 0.61184,0.711068 0.91776,1.438672 0.91776,2.182812 0,0.744141 -0.0249,1.289844 -0.0744,1.63711 -0.0496,0.330729 -0.30592,0.79375 -0.76896,1.389062 -0.44646,0.595313 -2.16628,1.30638 -5.15938,2.133203 -5.17591,1.504818 -8.28476,3.08405 -9.32656,4.737696 -0.51263,0.810286 -0.76893,1.827278 -0.76893,3.050976 0,2.14974 0.73586,3.952214 2.2076,5.407422 1.47177,1.438672 3.53883,2.158008 6.20117,2.158008 1.14102,0 2.17456,-0.132292 3.1006,-0.396875 1.93477,-0.529167 3.58841,-1.819011 4.96094,-3.869531 0.42995,1.339453 1.05005,2.33164 1.86034,2.976562 0.81028,0.628386 2.04226,0.942578 3.69591,0.942578 h 0.94258 l 0.5457,-3.571875 c -1.14101,0 -1.88516,-0.198437 -2.23242,-0.595312 -0.34727,-0.413412 -0.52091,-1.30638 -0.52091,-2.678907 V 73.00697 c 0,-2.860808 -0.72758,-5.060157 -2.18282,-6.598047 -1.45518,-1.554427 -3.88604,-2.331641 -7.29257,-2.331641 z m 31.6756,0 c -3.50573,0 -6.13503,1.016992 -7.88789,3.050977 v -2.554883 h -4.66329 v 26.292969 h 4.66329 V 72.138806 c 0,-1.35599 0.51263,-2.439128 1.53789,-3.249414 1.04179,-0.826823 2.52179,-1.240235 4.44002,-1.240235 3.78685,0 5.68029,1.281576 5.68029,3.844727 v 19.372461 h 4.66328 V 72.138806 c 0,-1.35599 0.51263,-2.439128 1.53789,-3.249414 1.0418,-0.826823 2.64583,-1.240235 4.81211,-1.240235 3.43958,0 5.15937,1.281576 5.15937,3.844727 v 19.372461 h 4.66329 v -19.09961 c 0,-1.091406 -0.14883,-2.083593 -0.44649,-2.976562 -1.0418,-3.141927 -3.77031,-4.712891 -8.18555,-4.712891 -3.42304,0 -6.08541,0.950847 -7.9871,2.852539 l -0.62014,0.595313 c -1.38903,-2.298568 -3.84471,-3.447852 -7.36697,-3.447852 z m 43.30898,0 c -3.57187,0 -6.24253,0.744141 -8.01193,2.232422 -1.7694,1.488281 -2.65409,3.530534 -2.65409,6.126758 v 9.15293 c 0,3.340364 0.8599,5.812565 2.57969,7.416601 1.71979,1.604037 4.50617,2.406055 8.35917,2.406055 1.91825,0 3.45612,-0.09922 4.61367,-0.297656 1.17409,-0.198438 2.17456,-0.578776 3.00138,-1.141016 0.84336,-0.578776 1.45521,-1.347721 1.83555,-2.306836 0.39687,-0.959115 0.67799,-2.224154 0.84336,-3.795117 h -4.11758 c -0.0992,1.07487 -0.25633,1.802474 -0.4713,2.182812 -0.19841,0.363802 -0.36378,0.636654 -0.4961,0.818555 -0.11573,0.181901 -0.33073,0.338997 -0.64492,0.471289 -0.31419,0.132292 -0.6201,0.248047 -0.91776,0.347266 -0.29766,0.09922 -1.5875,0.148828 -3.86953,0.148828 -2.28203,0 -3.86128,-0.42168 -4.73771,-1.265039 -0.87643,-0.859896 -1.31463,-2.38125 -1.31463,-4.564063 v -3.695898 h 16.61914 v -6.250781 c 0,-2.563151 -0.87644,-4.53099 -2.6293,-5.903516 -1.73633,-1.389063 -4.3987,-2.083594 -7.98711,-2.083594 z m 69.05625,0 c -3.75378,0 -6.50709,0.752409 -8.25998,2.257227 -1.73632,1.488281 -2.60448,3.530534 -2.60448,6.126758 v 10.591601 c 0,2.596224 0.86816,4.638477 2.60448,6.126758 1.75289,1.488281 4.5062,2.232422 8.25998,2.232422 3.75377,0 6.50711,-0.744141 8.25995,-2.232422 1.76942,-1.504818 2.65411,-3.54707 2.65411,-6.126758 V 72.461267 c 0,-2.579688 -0.88469,-4.62194 -2.65411,-6.126758 -1.75284,-1.504818 -4.50618,-2.257227 -8.25995,-2.257227 z m -159.94062,0.124024 c -1.48829,-0.01654 -2.9187,0.173632 -4.29123,0.570507 -2.62927,0.727605 -4.24159,1.901693 -4.8369,3.522266 v -3.720703 h -4.66328 v 26.292969 h 4.66328 V 72.461267 c 0,-1.058334 0.9343,-2.033985 2.80292,-2.926954 1.86862,-0.892968 3.92742,-1.339453 6.17638,-1.339453 z m 192.98046,0 c -1.48828,-0.01654 -2.9187,0.173632 -4.29122,0.570507 -2.62927,0.727605 -4.24159,1.901693 -4.8369,3.522266 v -3.720703 h -4.66329 v 26.292969 h 4.66329 V 72.461267 c 0,-1.058334 0.93429,-2.033985 2.80291,-2.926954 1.86862,-0.892968 3.92742,-1.339453 6.17638,-1.339453 z m -313.82891,0.37207 v 26.292969 h 4.66328 V 64.573376 Z m 227.45899,0 7.56542,26.292969 h 4.41523 l 6.72208,-20.959961 6.72206,20.959961 h 4.34083 l 7.68946,-26.292969 h -4.31602 l -5.63068,20.6375 -6.59804,-20.6375 h -4.48964 l -6.32521,20.6375 -5.82908,-20.6375 z m -15.62695,3.075781 c 1.96784,0 3.45612,0.28112 4.46484,0.84336 1.02526,0.562239 1.53789,1.5875 1.53789,3.075781 v 3.59668 h -12.10468 v -3.150196 c 0,-1.554427 0.52091,-2.670638 1.56268,-3.348633 1.05833,-0.677994 2.57143,-1.016992 4.53927,-1.016992 z m 68.98182,0 c 4.15065,0 6.22599,1.471745 6.22599,4.415235 v 11.385351 c 0,2.926953 -2.07534,4.39043 -6.22599,4.39043 -4.15065,0 -6.22596,-1.463477 -6.22596,-4.39043 V 72.064392 c 0,-2.94349 2.07531,-4.415235 6.22596,-4.415235 z m -139.25351,8.756055 v 7.590234 c -0.23149,0.777214 -0.73586,1.471745 -1.51308,2.083594 -0.76067,0.595313 -1.62057,1.050065 -2.57968,1.364258 -0.95912,0.297656 -2.03399,0.446484 -3.22461,0.446484 -1.17409,0 -2.18282,-0.314192 -3.02618,-0.942578 -0.82682,-0.628385 -1.24023,-1.554427 -1.24023,-2.778125 0,-1.240234 0.44648,-2.199349 1.33945,-2.877344 0.90951,-0.677994 2.53836,-1.355989 4.88651,-2.033984 2.36472,-0.694531 4.15065,-1.645378 5.35782,-2.852539 z" />
      <path
         transform="matrix(0.26458333,0,0,0.26458333,4.1577381,-74.839286)"
         d="m 1929.6836,483.10156 v 141.1875 h 17.625 v -31.3125 l 14.9062,-14.8125 35.625,46.125 h 20.3438 l -44.4375,-55.6875 40.4062,-43.6875 h -19.3125 l -47.5312,50.25 v -92.0625 z m -1075.87501,0.0937 v 141.09375 h 17.625 v -71.0625 c 0,-5 2.09374,-9.03125 6.28125,-12.09375 4.18749,-3.0625 9.96876,-4.59375 17.34375,-4.59375 14.75001,0 22.125,4.78125 22.125,14.34375 v 73.40625 h 17.625 v -72.46875 c 0,-4.0625 -0.62501,-7.78125 -1.875,-11.15625 -4.375,-11.75 -14.99999,-17.625 -31.875,-17.625 -13.31247,0 -23.18748,3.75 -29.625,11.25 v -51.09375 z m -256.125,5.53125 v 135.5625 h 18.9375 v -49.59375 h 34.96875 c 12.25001,0 21.625,-3.34375 28.125,-10.03125 6.5625,-6.6875 9.84375,-17.78125 9.84375,-33.28125 0,-28.4375 -12.56248,-42.65625 -37.6875,-42.65625 z m 123.375,0 v 18.28125 h 17.625 v -18.28125 z m 298.87501,0 v 135.5625 h 18.8437 v -62.25 h 54.75 v -14.0625 h -54.75 v -45.1875 h 58.125 v -14.0625 z m -235.40626,5.4375 -2.15625,30.75 h -17.25 v 13.3125 h 16.59375 v 57.65625 c 0,10.6875 3.0625,18.21875 9.1875,22.59375 6.18752,4.375 16.21876,6.5625 30.09375,6.5625 h 2.625 l 1.875,-14.8125 h -1.96875 c -8.9375,0 -15.21875,-1 -18.84375,-3 -3.5625,-2.0625 -5.34375,-6.21875 -5.34375,-12.46875 v -56.53125 h 24.9375 v -13.3125 h -24.9375 v -30.75 z m -167.90625,8.90625 h 35.8125 c 6.18752,0 10.75,2.1875 13.6875,6.5625 2.99999,4.375 4.5,12.03125 4.5,22.96875 0,3.25 -0.12504,6.0625 -0.375,8.4375 -1.12499,12.875 -7.21875,19.3125 -18.28125,19.3125 h -35.34375 z m 621.28121,19.96875 c -12.8749,0 -22.5624,2.28125 -29.0625,6.84375 -6.4374,4.5625 -9.6562,11.6875 -9.6562,21.375 v 4.5 h 16.9687 v -4.40625 c 0,-3.625 0.6251,-6.5 1.875,-8.625 2.4375,-4.125 9.0313,-6.1875 19.7813,-6.1875 7.625,0 12.5625,1.34375 14.8125,4.03125 2.3125,2.6875 3.4687,5.4375 3.4687,8.25 0,2.8125 -0.094,4.875 -0.2812,6.1875 -0.1875,1.25 -1.1562,3 -2.9063,5.25 -1.6874,2.25 -8.1875,4.9375 -19.5,8.0625 -19.5625,5.6875 -31.3125,11.65625 -35.25,17.90625 -1.9375,3.0625 -2.9062,6.90625 -2.9062,11.53125 0,8.125 2.7812,14.9375 8.3437,20.4375 5.5626,5.4375 13.3751,8.15625 23.4375,8.15625 4.3125,0 8.2188,-0.5 11.7188,-1.5 7.3125,-2 13.5625,-6.875 18.75,-14.625 1.625,5.0625 3.9687,8.8125 7.0312,11.25 3.0625,2.375 7.7188,3.5625 13.9688,3.5625 h 3.5625 l 2.0625,-13.5 c -4.3125,0 -7.125,-0.75 -8.4375,-2.25 -1.3125,-1.5625 -1.9688,-4.9375 -1.9688,-10.125 v -42.375 c 0,-10.8125 -2.7499,-19.125 -8.25,-24.9375 -5.4999,-5.875 -14.6874,-8.8125 -27.5625,-8.8125 z m 119.7188,0 c -13.25,0 -23.1875,3.84375 -29.8125,11.53125 v -9.65625 h -17.625 v 99.375 h 17.625 v -70.78125 c 0,-5.125 1.9375,-9.21875 5.8125,-12.28125 3.9375,-3.125 9.5312,-4.6875 16.7812,-4.6875 14.3125,0 21.4688,4.84375 21.4688,14.53125 v 73.21875 h 17.625 v -70.78125 c 0,-5.125 1.9375,-9.21875 5.8125,-12.28125 3.9375,-3.125 10,-4.6875 18.1875,-4.6875 13,0 19.5,4.84375 19.5,14.53125 v 73.21875 h 17.625 v -72.1875 c 0,-4.125 -0.5625,-7.875 -1.6875,-11.25 -3.9375,-11.875 -14.25,-17.8125 -30.9375,-17.8125 -12.9375,0 -23,3.59375 -30.1875,10.78125 l -2.3438,2.25 c -5.2499,-8.6875 -14.5312,-13.03125 -27.8437,-13.03125 z m 163.6875,0 c -13.5,0 -23.5938,2.8125 -30.2813,8.4375 -6.6875,5.625 -10.0312,13.34375 -10.0312,23.15625 v 34.59375 c 0,12.625 3.25,21.96875 9.75,28.03125 6.5,6.0625 17.0312,9.09375 31.5937,9.09375 7.2501,0 13.0625,-0.375 17.4375,-1.125 4.4375,-0.75 8.2188,-2.1875 11.3438,-4.3125 3.1875,-2.1875 5.5,-5.09375 6.9375,-8.71875 1.5,-3.625 2.5625,-8.40625 3.1875,-14.34375 h -15.5625 c -0.375,4.0625 -0.9688,6.8125 -1.7813,8.25 -0.7499,1.375 -1.3749,2.40625 -1.875,3.09375 -0.4374,0.6875 -1.25,1.28125 -2.4375,1.78125 -1.1875,0.5 -2.3437,0.9375 -3.4687,1.3125 -1.125,0.375 -6,0.5625 -14.625,0.5625 -8.625,0 -14.5938,-1.59375 -17.9063,-4.78125 -3.3125,-3.25 -4.9687,-9 -4.9687,-17.25 v -13.96875 h 62.8125 v -23.625 c 0,-9.6875 -3.3125,-17.125 -9.9375,-22.3125 -6.5625,-5.25 -16.625,-7.875 -30.1875,-7.875 z m 261,0 c -14.1875,0 -24.5937,2.84375 -31.2188,8.53125 -6.5625,5.625 -9.8437,13.34375 -9.8437,23.15625 v 40.03125 c 0,9.8125 3.2812,17.53125 9.8437,23.15625 6.6251,5.625 17.0313,8.4375 31.2188,8.4375 14.1875,0 24.5938,-2.8125 31.2187,-8.4375 6.6876,-5.6875 10.0313,-13.40625 10.0313,-23.15625 v -40.03125 c 0,-9.75 -3.3437,-17.46875 -10.0313,-23.15625 -6.6249,-5.6875 -17.0312,-8.53125 -31.2187,-8.53125 z m -604.5,0.46875 c -5.625,-0.0625 -11.0313,0.65625 -16.2188,2.15625 -9.9374,2.75 -16.0312,7.1875 -18.2812,13.3125 v -14.0625 h -17.625 v 99.375 h 17.625 v -69.5625 c 0,-4 3.5312,-7.6875 10.5937,-11.0625 7.0625,-3.375 14.8438,-5.0625 23.3438,-5.0625 z m 729.375,0 c -5.625,-0.0625 -11.0313,0.65625 -16.2188,2.15625 -9.9374,2.75 -16.0312,7.1875 -18.2812,13.3125 v -14.0625 h -17.625 v 99.375 h 17.625 v -69.5625 c 0,-4 3.5312,-7.6875 10.5937,-11.0625 7.0625,-3.375 14.8438,-5.0625 23.3438,-5.0625 z m -1186.12501,1.40625 v 99.375 h 17.625 v -99.375 z m 859.68751,0 28.5937,99.375 h 16.6875 l 25.4063,-79.21875 25.4062,79.21875 h 16.4063 l 29.0625,-99.375 h -16.3125 l -21.2813,78 -24.9375,-78 h -16.9687 l -23.9063,78 -22.0312,-78 z m -59.0625,11.625 c 7.4375,0 13.0625,1.0625 16.875,3.1875 3.875,2.125 5.8125,6 5.8125,11.625 v 13.59375 h -45.75 v -11.90625 c 0,-5.875 1.9688,-10.09375 5.9062,-12.65625 4,-2.5625 9.7188,-3.84375 17.1563,-3.84375 z m 260.7187,0 c 15.6875,0 23.5313,5.5625 23.5313,16.6875 v 43.03125 c 0,11.0625 -7.8438,16.59375 -23.5313,16.59375 -15.6875,0 -23.5312,-5.53125 -23.5312,-16.59375 v -43.03125 c 0,-11.125 7.8437,-16.6875 23.5312,-16.6875 z m -526.3125,33.09375 v 28.6875 c -0.8749,2.9375 -2.7812,5.5625 -5.7187,7.875 -2.875,2.25 -6.125,3.96875 -9.75,5.15625 -3.625,1.125 -7.6875,1.6875 -12.1875,1.6875 -4.4375,0 -8.25,-1.1875 -11.4375,-3.5625 -3.125,-2.375 -4.6875,-5.875 -4.6875,-10.5 0,-4.6875 1.6875,-8.3125 5.0625,-10.875 3.4375,-2.5625 9.5938,-5.125 18.4687,-7.6875 8.9375,-2.625 15.6875,-6.21875 20.25,-10.78125 z"
         style="font-style:normal;font-variant:normal;font-weight:normal;font-stretch:normal;font-size:50.8px;font-family:Monda;-inkscape-font-specification:Monda;fill:#ffffff;stroke-width:0.999999"
         id="path1506" />
    </g>
  </g>
</svg>
